<svg width="1810" height="480" viewBox="0 0 1810 480" fill="none" xmlns="http://www.w3.org/2000/svg">
<g clip-path="url(#clip0_754_156)">
<rect width="1810" height="480" fill="url(#paint0_linear_754_156)"/>
<rect x="1533" width="277" height="211.048" fill="#3B82F6" fill-opacity="0.14"/>
<rect x="1576" y="317.714" width="191" height="145.524" fill="#3B82F6" fill-opacity="0.14"/>
<rect x="1285" y="263.619" width="206" height="156.952" fill="#3B82F6" fill-opacity="0.14"/>
<rect x="1013" y="317.714" width="150" height="114.286" fill="#3B82F6" fill-opacity="0.14"/>
<rect x="956" y="101.333" width="155" height="118.095" fill="#3B82F6" fill-opacity="0.14"/>
<rect x="1202" y="35.0479" width="210" height="160" fill="#3B82F6" fill-opacity="0.14"/>
<path d="M263.621 173L297.208 91.3644H306.538L339.892 173H325.431L299.308 106.875H304.206L277.849 173H263.621ZM280.182 157.256V145.594H323.448V157.256H280.182ZM370.747 174.166C366.004 174.166 361.767 173.117 358.035 171.017C354.381 168.918 351.504 166.042 349.405 162.387C347.384 158.655 346.373 154.379 346.373 149.559V117.021H359.201V148.976C359.201 151.697 359.629 154.029 360.484 155.973C361.417 157.839 362.739 159.277 364.449 160.288C366.237 161.299 368.337 161.804 370.747 161.804C374.479 161.804 377.317 160.716 379.26 158.539C381.282 156.284 382.292 153.096 382.292 148.976V117.021H395.121V149.559C395.121 154.457 394.071 158.772 391.972 162.504C389.951 166.158 387.113 169.035 383.459 171.134C379.805 173.155 375.567 174.166 370.747 174.166ZM416.533 173V93.6969H429.361V173H416.533ZM403.121 128.684V117.021H442.773V128.684H403.121ZM476.157 174.166C470.715 174.166 465.778 172.883 461.346 170.318C456.914 167.674 453.377 164.137 450.733 159.705C448.168 155.273 446.885 150.336 446.885 144.894C446.885 139.452 448.168 134.554 450.733 130.2C453.377 125.846 456.914 122.386 461.346 119.82C465.778 117.177 470.715 115.855 476.157 115.855C481.677 115.855 486.653 117.138 491.085 119.704C495.516 122.269 499.015 125.768 501.581 130.2C504.224 134.554 505.546 139.452 505.546 144.894C505.546 150.336 504.224 155.273 501.581 159.705C499.015 164.137 495.516 167.674 491.085 170.318C486.653 172.883 481.677 174.166 476.157 174.166ZM476.157 161.804C479.345 161.804 482.144 161.105 484.554 159.705C487.042 158.228 488.947 156.206 490.268 153.641C491.668 151.075 492.367 148.159 492.367 144.894C492.367 141.629 491.668 138.752 490.268 136.264C488.869 133.776 486.964 131.832 484.554 130.433C482.144 128.956 479.345 128.217 476.157 128.217C473.047 128.217 470.248 128.956 467.76 130.433C465.35 131.832 463.445 133.776 462.046 136.264C460.724 138.752 460.063 141.629 460.063 144.894C460.063 148.159 460.724 151.075 462.046 153.641C463.445 156.206 465.35 158.228 467.76 159.705C470.248 161.105 473.047 161.804 476.157 161.804ZM516.214 173V117.021H529.042V173H516.214ZM553.416 173V139.646C553.416 135.914 552.25 133.037 549.918 131.016C547.585 128.917 544.709 127.867 541.288 127.867C538.955 127.867 536.856 128.334 534.99 129.267C533.202 130.2 531.764 131.56 530.675 133.348C529.587 135.059 529.042 137.158 529.042 139.646L524.028 136.847C524.028 132.571 524.961 128.878 526.827 125.768C528.693 122.658 531.219 120.248 534.407 118.537C537.595 116.749 541.171 115.855 545.136 115.855C549.101 115.855 552.678 116.71 555.866 118.421C559.053 120.131 561.58 122.541 563.446 125.651C565.312 128.761 566.245 132.493 566.245 136.847V173H553.416ZM590.619 173V139.646C590.619 135.914 589.453 133.037 587.12 131.016C584.788 128.917 581.911 127.867 578.49 127.867C576.236 127.867 574.175 128.334 572.309 129.267C570.443 130.2 568.966 131.56 567.878 133.348C566.789 135.059 566.245 137.158 566.245 139.646L559.014 136.847C559.403 132.571 560.647 128.878 562.746 125.768C564.845 122.658 567.528 120.248 570.793 118.537C574.136 116.749 577.79 115.855 581.756 115.855C585.799 115.855 589.453 116.71 592.718 118.421C595.984 120.131 598.588 122.541 600.532 125.651C602.476 128.761 603.447 132.493 603.447 136.847V173H590.619ZM640.105 174.166C635.051 174.166 630.464 172.883 626.344 170.318C622.301 167.752 619.074 164.292 616.664 159.938C614.331 155.507 613.165 150.57 613.165 145.127C613.165 139.607 614.331 134.67 616.664 130.316C619.074 125.885 622.301 122.386 626.344 119.82C630.464 117.177 635.051 115.855 640.105 115.855C644.381 115.855 648.152 116.788 651.417 118.654C654.761 120.442 657.404 122.93 659.348 126.118C661.291 129.306 662.263 132.921 662.263 136.964V153.058C662.263 157.101 661.291 160.716 659.348 163.903C657.482 167.091 654.877 169.618 651.534 171.484C648.191 173.272 644.381 174.166 640.105 174.166ZM642.204 162.038C646.947 162.038 650.757 160.444 653.633 157.256C656.588 154.068 658.065 149.987 658.065 145.011C658.065 141.667 657.404 138.713 656.082 136.147C654.761 133.582 652.895 131.599 650.484 130.2C648.152 128.722 645.392 127.984 642.204 127.984C639.094 127.984 636.334 128.722 633.924 130.2C631.592 131.599 629.726 133.582 628.326 136.147C627.004 138.713 626.344 141.667 626.344 145.011C626.344 148.354 627.004 151.308 628.326 153.874C629.726 156.44 631.592 158.461 633.924 159.938C636.334 161.338 639.094 162.038 642.204 162.038ZM657.248 173V157.956L659.464 144.311L657.248 130.783V117.021H670.077V173H657.248ZM692.827 173V93.6969H705.656V173H692.827ZM679.416 128.684V117.021H719.067V128.684H679.416ZM728.506 173V117.021H741.334V173H728.506ZM734.92 106.759C732.743 106.759 730.916 106.02 729.439 104.543C728.039 103.066 727.339 101.238 727.339 99.0615C727.339 96.8846 728.039 95.0575 729.439 93.5803C730.916 92.103 732.743 91.3644 734.92 91.3644C737.175 91.3644 739.002 92.103 740.401 93.5803C741.801 95.0575 742.5 96.8846 742.5 99.0615C742.5 101.238 741.801 103.066 740.401 104.543C739.002 106.02 737.175 106.759 734.92 106.759ZM781.379 174.166C775.937 174.166 771 172.883 766.568 170.318C762.137 167.674 758.599 164.137 755.956 159.705C753.39 155.273 752.107 150.336 752.107 144.894C752.107 139.452 753.39 134.554 755.956 130.2C758.599 125.846 762.137 122.386 766.568 119.82C771 117.177 775.937 115.855 781.379 115.855C786.899 115.855 791.875 117.138 796.307 119.704C800.738 122.269 804.237 125.768 806.803 130.2C809.446 134.554 810.768 139.452 810.768 144.894C810.768 150.336 809.446 155.273 806.803 159.705C804.237 164.137 800.738 167.674 796.307 170.318C791.875 172.883 786.899 174.166 781.379 174.166ZM781.379 161.804C784.567 161.804 787.366 161.105 789.776 159.705C792.264 158.228 794.169 156.206 795.49 153.641C796.89 151.075 797.59 148.159 797.59 144.894C797.59 141.629 796.89 138.752 795.49 136.264C794.091 133.776 792.186 131.832 789.776 130.433C787.366 128.956 784.567 128.217 781.379 128.217C778.269 128.217 775.47 128.956 772.982 130.433C770.572 131.832 768.667 133.776 767.268 136.264C765.946 138.752 765.285 141.629 765.285 144.894C765.285 148.159 765.946 151.075 767.268 153.641C768.667 156.206 770.572 158.228 772.982 159.705C775.47 161.105 778.269 161.804 781.379 161.804ZM859.805 173V140.696C859.805 136.964 858.6 133.893 856.19 131.482C853.857 129.072 850.825 127.867 847.093 127.867C844.605 127.867 842.389 128.411 840.446 129.5C838.502 130.588 836.986 132.104 835.897 134.048C834.809 135.992 834.265 138.208 834.265 140.696L829.25 137.897C829.25 133.621 830.183 129.85 832.049 126.584C833.915 123.241 836.48 120.637 839.746 118.771C843.089 116.827 846.821 115.855 850.942 115.855C855.14 115.855 858.872 116.944 862.137 119.121C865.403 121.22 867.968 123.98 869.834 127.401C871.7 130.744 872.633 134.243 872.633 137.897V173H859.805ZM821.436 173V117.021H834.265V173H821.436ZM885.67 186.645L893.6 171.834L897.915 170.668C897.448 171.601 896.904 172.378 896.282 173C895.66 173.622 894.922 173.933 894.066 173.933C892.278 173.933 890.607 173.194 889.052 171.717C887.574 170.162 886.836 168.218 886.836 165.886C886.836 163.398 887.652 161.299 889.285 159.588C890.995 157.8 893.095 156.906 895.582 156.906C897.915 156.906 899.936 157.8 901.647 159.588C903.435 161.299 904.329 163.398 904.329 165.886C904.329 166.897 904.096 168.102 903.629 169.501C903.241 170.823 902.502 172.534 901.414 174.633L892.784 190.493L885.67 186.645ZM952.21 142.212V130.55H972.619C975.418 130.55 977.867 130.005 979.966 128.917C982.143 127.751 983.853 126.157 985.097 124.135C986.341 122.036 986.963 119.587 986.963 116.788C986.963 113.989 986.341 111.579 985.097 109.558C983.853 107.458 982.143 105.864 979.966 104.776C977.867 103.61 975.418 103.027 972.619 103.027H952.21V91.3644H973.318C978.45 91.3644 983.037 92.414 987.08 94.5132C991.201 96.6124 994.427 99.5669 996.759 103.377C999.17 107.186 1000.37 111.657 1000.37 116.788C1000.37 121.919 999.17 126.39 996.759 130.2C994.427 134.009 991.201 136.964 987.08 139.063C983.037 141.162 978.45 142.212 973.318 142.212H952.21ZM942.997 173V91.3644H956.408V173H942.997ZM1034.44 174.166C1029 174.166 1024.06 172.883 1019.63 170.318C1015.2 167.674 1011.66 164.137 1009.02 159.705C1006.45 155.273 1005.17 150.336 1005.17 144.894C1005.17 139.452 1006.45 134.554 1009.02 130.2C1011.66 125.846 1015.2 122.386 1019.63 119.82C1024.06 117.177 1029 115.855 1034.44 115.855C1039.96 115.855 1044.94 117.138 1049.37 119.704C1053.8 122.269 1057.3 125.768 1059.86 130.2C1062.51 134.554 1063.83 139.452 1063.83 144.894C1063.83 150.336 1062.51 155.273 1059.86 159.705C1057.3 164.137 1053.8 167.674 1049.37 170.318C1044.94 172.883 1039.96 174.166 1034.44 174.166ZM1034.44 161.804C1037.63 161.804 1040.43 161.105 1042.84 159.705C1045.33 158.228 1047.23 156.206 1048.55 153.641C1049.95 151.075 1050.65 148.159 1050.65 144.894C1050.65 141.629 1049.95 138.752 1048.55 136.264C1047.15 133.776 1045.25 131.832 1042.84 130.433C1040.43 128.956 1037.63 128.217 1034.44 128.217C1031.33 128.217 1028.53 128.956 1026.04 130.433C1023.63 131.832 1021.73 133.776 1020.33 136.264C1019.01 138.752 1018.35 141.629 1018.35 144.894C1018.35 148.159 1019.01 151.075 1020.33 153.641C1021.73 156.206 1023.63 158.228 1026.04 159.705C1028.53 161.105 1031.33 161.804 1034.44 161.804ZM1089.46 173L1066.95 117.021H1080.24L1095.41 157.722L1091.44 157.839L1106.25 117.021H1113.72L1128.53 157.839L1124.56 157.722L1139.72 117.021H1153.02L1130.51 173H1123.04L1107.88 134.281H1112.08L1096.92 173H1089.46ZM1185.69 174.166C1180.1 174.166 1175.04 172.922 1170.53 170.434C1166.1 167.869 1162.56 164.37 1159.92 159.938C1157.35 155.507 1156.07 150.531 1156.07 145.011C1156.07 139.491 1157.35 134.554 1159.92 130.2C1162.49 125.768 1165.94 122.269 1170.3 119.704C1174.73 117.138 1179.63 115.855 1184.99 115.855C1190.2 115.855 1194.79 117.06 1198.75 119.47C1202.8 121.881 1205.95 125.185 1208.2 129.383C1210.53 133.582 1211.7 138.363 1211.7 143.728C1211.7 144.661 1211.62 145.633 1211.47 146.643C1211.39 147.576 1211.23 148.626 1211 149.792H1165.05V139.296H1204.35L1199.57 143.495C1199.42 140.074 1198.75 137.197 1197.59 134.865C1196.42 132.532 1194.75 130.744 1192.57 129.5C1190.47 128.256 1187.87 127.634 1184.76 127.634C1181.49 127.634 1178.66 128.334 1176.25 129.733C1173.84 131.133 1171.97 133.115 1170.65 135.681C1169.33 138.169 1168.67 141.162 1168.67 144.661C1168.67 148.159 1169.37 151.231 1170.77 153.874C1172.16 156.517 1174.15 158.578 1176.71 160.055C1179.28 161.454 1182.23 162.154 1185.58 162.154C1188.45 162.154 1191.1 161.649 1193.51 160.638C1195.99 159.627 1198.09 158.15 1199.8 156.206L1207.97 164.487C1205.25 167.674 1201.94 170.084 1198.05 171.717C1194.17 173.35 1190.05 174.166 1185.69 174.166ZM1221.98 173V117.021H1234.81V173H1221.98ZM1234.81 141.862L1230.38 139.646C1230.38 132.571 1231.94 126.856 1235.05 122.503C1238.23 118.071 1243.01 115.855 1249.39 115.855C1252.19 115.855 1254.72 116.36 1256.97 117.371C1259.22 118.382 1261.32 120.015 1263.27 122.269L1254.87 130.899C1253.86 129.811 1252.73 129.033 1251.49 128.567C1250.24 128.1 1248.81 127.867 1247.17 127.867C1243.6 127.867 1240.64 128.995 1238.31 131.249C1235.98 133.504 1234.81 137.041 1234.81 141.862ZM1293.77 174.166C1288.18 174.166 1283.12 172.922 1278.61 170.434C1274.18 167.869 1270.64 164.37 1268 159.938C1265.43 155.507 1264.15 150.531 1264.15 145.011C1264.15 139.491 1265.43 134.554 1268 130.2C1270.57 125.768 1274.03 122.269 1278.38 119.704C1282.81 117.138 1287.71 115.855 1293.07 115.855C1298.28 115.855 1302.87 117.06 1306.84 119.47C1310.88 121.881 1314.03 125.185 1316.28 129.383C1318.61 133.582 1319.78 138.363 1319.78 143.728C1319.78 144.661 1319.7 145.633 1319.55 146.643C1319.47 147.576 1319.31 148.626 1319.08 149.792H1273.13V139.296H1312.43L1307.65 143.495C1307.5 140.074 1306.84 137.197 1305.67 134.865C1304.5 132.532 1302.83 130.744 1300.65 129.5C1298.56 128.256 1295.95 127.634 1292.84 127.634C1289.58 127.634 1286.74 128.334 1284.33 129.733C1281.92 131.133 1280.05 133.115 1278.73 135.681C1277.41 138.169 1276.75 141.162 1276.75 144.661C1276.75 148.159 1277.45 151.231 1278.85 153.874C1280.25 156.517 1282.23 158.578 1284.79 160.055C1287.36 161.454 1290.31 162.154 1293.66 162.154C1296.53 162.154 1299.18 161.649 1301.59 160.638C1304.08 159.627 1306.17 158.15 1307.88 156.206L1316.05 164.487C1313.33 167.674 1310.02 170.084 1306.14 171.717C1302.25 173.35 1298.13 174.166 1293.77 174.166ZM1353.51 174.166C1348.45 174.166 1343.86 172.883 1339.74 170.318C1335.7 167.752 1332.47 164.292 1330.06 159.938C1327.73 155.507 1326.57 150.57 1326.57 145.127C1326.57 139.607 1327.73 134.67 1330.06 130.316C1332.47 125.885 1335.7 122.386 1339.74 119.82C1343.86 117.177 1348.45 115.855 1353.51 115.855C1357.78 115.855 1361.55 116.788 1364.82 118.654C1368.16 120.442 1370.8 122.93 1372.75 126.118C1374.69 129.306 1375.66 132.921 1375.66 136.964V153.058C1375.66 157.101 1374.69 160.716 1372.75 163.903C1370.88 167.091 1368.28 169.618 1364.93 171.484C1361.59 173.272 1357.78 174.166 1353.51 174.166ZM1355.6 162.038C1358.79 162.038 1361.55 161.338 1363.88 159.938C1366.29 158.461 1368.16 156.44 1369.48 153.874C1370.8 151.308 1371.46 148.354 1371.46 145.011C1371.46 141.667 1370.8 138.713 1369.48 136.147C1368.16 133.582 1366.29 131.599 1363.88 130.2C1361.55 128.722 1358.79 127.984 1355.6 127.984C1352.49 127.984 1349.73 128.722 1347.32 130.2C1344.99 131.599 1343.13 133.582 1341.73 136.147C1340.4 138.713 1339.74 141.667 1339.74 145.011C1339.74 148.354 1340.4 151.308 1341.73 153.874C1343.13 156.44 1344.99 158.461 1347.32 159.938C1349.73 161.338 1352.49 162.038 1355.6 162.038ZM1383.48 173H1370.65V157.956L1372.86 144.311L1370.65 130.783V89.032H1383.48V173ZM1451.03 174.166C1446.76 174.166 1442.95 173.272 1439.6 171.484C1436.26 169.618 1433.62 167.091 1431.67 163.903C1429.81 160.716 1428.87 157.101 1428.87 153.058V136.964C1428.87 132.921 1429.85 129.306 1431.79 126.118C1433.73 122.93 1436.38 120.442 1439.72 118.654C1443.06 116.788 1446.83 115.855 1451.03 115.855C1456.09 115.855 1460.64 117.177 1464.68 119.82C1468.8 122.386 1472.03 125.885 1474.36 130.316C1476.77 134.67 1477.97 139.607 1477.97 145.127C1477.97 150.57 1476.77 155.507 1474.36 159.938C1472.03 164.292 1468.8 167.752 1464.68 170.318C1460.64 172.883 1456.09 174.166 1451.03 174.166ZM1421.06 173V89.032H1433.89V130.783L1431.67 144.311L1433.89 157.956V173H1421.06ZM1448.93 162.038C1452.04 162.038 1454.77 161.338 1457.1 159.938C1459.51 158.461 1461.37 156.44 1462.7 153.874C1464.09 151.308 1464.79 148.354 1464.79 145.011C1464.79 141.667 1464.09 138.713 1462.7 136.147C1461.37 133.582 1459.51 131.599 1457.1 130.2C1454.77 128.722 1452.04 127.984 1448.93 127.984C1445.82 127.984 1443.06 128.722 1440.65 130.2C1438.24 131.599 1436.38 133.582 1435.06 136.147C1433.73 138.713 1433.07 141.667 1433.07 145.011C1433.07 148.354 1433.73 151.308 1435.06 153.874C1436.38 156.44 1438.24 158.461 1440.65 159.938C1443.06 161.338 1445.82 162.038 1448.93 162.038ZM1504.85 173.583L1480.94 117.021H1495.06L1511.38 158.539H1507.3L1524.56 117.021H1538.79L1512.78 173.583H1504.85ZM1488.17 196.324L1505.55 160.521L1512.78 173.583L1502.4 196.324H1488.17ZM100.416 291.166C94.5845 291.166 89.1422 290.078 84.0885 287.901C79.0349 285.724 74.6033 282.731 70.7936 278.921C66.9839 275.033 63.9906 270.563 61.8137 265.509C59.7145 260.378 58.6649 254.897 58.6649 249.066C58.6649 243.234 59.7145 237.792 61.8137 232.738C63.9906 227.685 66.9451 223.253 70.677 219.444C74.4866 215.556 78.8794 212.563 83.8553 210.464C88.9089 208.287 94.3513 207.198 100.182 207.198C106.014 207.198 111.417 208.287 116.393 210.464C121.447 212.563 125.878 215.556 129.688 219.444C133.497 223.253 136.452 227.724 138.551 232.855C140.728 237.909 141.817 243.351 141.817 249.182C141.817 255.013 140.728 260.495 138.551 265.626C136.452 270.68 133.497 275.111 129.688 278.921C125.956 282.731 121.563 285.724 116.51 287.901C111.534 290.078 106.169 291.166 100.416 291.166ZM100.182 278.338C105.703 278.338 110.523 277.094 114.644 274.606C118.842 272.118 122.107 268.697 124.44 264.343C126.85 259.911 128.055 254.819 128.055 249.066C128.055 244.789 127.355 240.902 125.956 237.403C124.634 233.827 122.729 230.756 120.241 228.19C117.753 225.547 114.799 223.525 111.378 222.126C108.035 220.726 104.303 220.027 100.182 220.027C94.74 220.027 89.9196 221.271 85.7212 223.759C81.6006 226.169 78.3352 229.551 75.925 233.905C73.5925 238.259 72.4263 243.312 72.4263 249.066C72.4263 253.342 73.0872 257.307 74.4089 260.961C75.8084 264.537 77.7132 267.609 80.1234 270.174C82.6113 272.74 85.5657 274.761 88.9867 276.239C92.4076 277.638 96.1395 278.338 100.182 278.338ZM183.678 291.166C179.401 291.166 175.592 290.272 172.249 288.484C168.905 286.618 166.262 284.091 164.318 280.903C162.452 277.716 161.519 274.101 161.519 270.058V253.964C161.519 249.921 162.491 246.306 164.435 243.118C166.379 239.93 169.022 237.442 172.365 235.654C175.708 233.788 179.479 232.855 183.678 232.855C188.731 232.855 193.279 234.177 197.322 236.82C201.443 239.386 204.67 242.885 207.002 247.316C209.412 251.67 210.617 256.607 210.617 262.127C210.617 267.57 209.412 272.507 207.002 276.938C204.67 281.292 201.443 284.752 197.322 287.318C193.279 289.883 188.731 291.166 183.678 291.166ZM153.706 313.324V234.021H166.534V249.066L164.318 262.71L166.534 276.239V313.324H153.706ZM181.578 279.038C184.688 279.038 187.409 278.338 189.742 276.938C192.152 275.461 194.018 273.44 195.34 270.874C196.739 268.308 197.439 265.354 197.439 262.011C197.439 258.667 196.739 255.713 195.34 253.147C194.018 250.582 192.152 248.599 189.742 247.2C187.409 245.722 184.688 244.984 181.578 244.984C178.468 244.984 175.708 245.722 173.298 247.2C170.888 248.599 169.022 250.582 167.7 253.147C166.379 255.713 165.718 258.667 165.718 262.011C165.718 265.354 166.379 268.308 167.7 270.874C169.022 273.44 170.888 275.461 173.298 276.938C175.708 278.338 178.468 279.038 181.578 279.038ZM247.362 291.166C241.765 291.166 236.711 289.922 232.201 287.434C227.77 284.869 224.232 281.37 221.589 276.938C219.023 272.507 217.74 267.531 217.74 262.011C217.74 256.491 219.023 251.554 221.589 247.2C224.155 242.768 227.614 239.269 231.968 236.704C236.4 234.138 241.298 232.855 246.663 232.855C251.872 232.855 256.459 234.06 260.424 236.47C264.467 238.881 267.616 242.185 269.87 246.383C272.203 250.582 273.369 255.363 273.369 260.728C273.369 261.661 273.291 262.633 273.136 263.643C273.058 264.576 272.903 265.626 272.669 266.792H226.72V256.296H266.022L261.24 260.495C261.085 257.074 260.424 254.197 259.258 251.865C258.092 249.532 256.42 247.744 254.243 246.5C252.144 245.256 249.539 244.634 246.429 244.634C243.164 244.634 240.326 245.334 237.916 246.733C235.506 248.133 233.64 250.115 232.318 252.681C230.996 255.169 230.336 258.162 230.336 261.661C230.336 265.159 231.035 268.231 232.435 270.874C233.834 273.517 235.817 275.578 238.382 277.055C240.948 278.454 243.903 279.154 247.246 279.154C250.122 279.154 252.766 278.649 255.176 277.638C257.664 276.627 259.763 275.15 261.474 273.206L269.637 281.487C266.916 284.674 263.612 287.084 259.724 288.717C255.837 290.35 251.716 291.166 247.362 291.166ZM322.022 290V257.696C322.022 253.964 320.816 250.893 318.406 248.482C316.074 246.072 313.042 244.867 309.31 244.867C306.822 244.867 304.606 245.411 302.662 246.5C300.719 247.588 299.202 249.104 298.114 251.048C297.026 252.992 296.481 255.208 296.481 257.696L291.467 254.897C291.467 250.621 292.4 246.85 294.265 243.584C296.131 240.241 298.697 237.637 301.963 235.771C305.306 233.827 309.038 232.855 313.158 232.855C317.357 232.855 321.089 233.944 324.354 236.121C327.619 238.22 330.185 240.98 332.051 244.401C333.917 247.744 334.85 251.243 334.85 254.897V290H322.022ZM283.653 290V234.021H296.481V290H283.653ZM347.886 266.326V254.197H387.421V266.326H347.886ZM423.057 291.166C416.604 291.166 411.123 290 406.614 287.668C402.104 285.335 398.061 281.914 394.485 277.405L403.582 268.308C405.836 271.574 408.519 274.139 411.628 276.005C414.738 277.794 418.704 278.688 423.524 278.688C428.033 278.688 431.61 277.755 434.253 275.889C436.974 274.023 438.335 271.457 438.335 268.192C438.335 265.47 437.635 263.255 436.236 261.544C434.836 259.834 432.97 258.434 430.638 257.346C428.383 256.18 425.856 255.169 423.057 254.314C420.336 253.381 417.576 252.37 414.777 251.281C412.056 250.115 409.529 248.677 407.197 246.966C404.942 245.256 403.115 243.04 401.716 240.319C400.316 237.598 399.616 234.138 399.616 229.94C399.616 225.119 400.783 221.037 403.115 217.694C405.525 214.273 408.752 211.669 412.795 209.881C416.838 208.092 421.347 207.198 426.323 207.198C431.687 207.198 436.469 208.248 440.667 210.347C444.944 212.446 448.403 215.129 451.047 218.394L441.95 227.49C439.618 224.847 437.169 222.903 434.603 221.659C432.115 220.338 429.238 219.677 425.973 219.677C421.93 219.677 418.742 220.493 416.41 222.126C414.155 223.759 413.028 226.052 413.028 229.007C413.028 231.495 413.728 233.516 415.127 235.071C416.527 236.548 418.354 237.831 420.608 238.919C422.941 239.93 425.468 240.902 428.189 241.835C430.988 242.768 433.748 243.818 436.469 244.984C439.268 246.15 441.795 247.666 444.049 249.532C446.382 251.32 448.248 253.653 449.647 256.529C451.047 259.406 451.746 263.021 451.746 267.375C451.746 274.684 449.142 280.476 443.933 284.752C438.801 289.028 431.843 291.166 423.057 291.166ZM488.343 291.166C482.901 291.166 477.964 289.883 473.532 287.318C469.1 284.674 465.563 281.137 462.919 276.705C460.354 272.273 459.071 267.336 459.071 261.894C459.071 256.452 460.354 251.554 462.919 247.2C465.563 242.846 469.1 239.386 473.532 236.82C477.964 234.177 482.901 232.855 488.343 232.855C493.863 232.855 498.839 234.138 503.271 236.704C507.702 239.269 511.201 242.768 513.767 247.2C516.41 251.554 517.732 256.452 517.732 261.894C517.732 267.336 516.41 272.273 513.767 276.705C511.201 281.137 507.702 284.674 503.271 287.318C498.839 289.883 493.863 291.166 488.343 291.166ZM488.343 278.804C491.531 278.804 494.33 278.105 496.74 276.705C499.228 275.228 501.133 273.206 502.454 270.641C503.854 268.075 504.554 265.159 504.554 261.894C504.554 258.629 503.854 255.752 502.454 253.264C501.055 250.776 499.15 248.832 496.74 247.433C494.33 245.956 491.531 245.217 488.343 245.217C485.233 245.217 482.434 245.956 479.946 247.433C477.536 248.832 475.631 250.776 474.232 253.264C472.91 255.752 472.249 258.629 472.249 261.894C472.249 265.159 472.91 268.075 474.232 270.641C475.631 273.206 477.536 275.228 479.946 276.705C482.434 278.105 485.233 278.804 488.343 278.804ZM551.375 291.166C546.632 291.166 542.395 290.117 538.663 288.017C535.009 285.918 532.132 283.042 530.033 279.387C528.011 275.655 527.001 271.379 527.001 266.559V234.021H539.829V265.976C539.829 268.697 540.257 271.029 541.112 272.973C542.045 274.839 543.367 276.277 545.077 277.288C546.865 278.299 548.964 278.804 551.375 278.804C555.107 278.804 557.944 277.716 559.888 275.539C561.91 273.284 562.92 270.096 562.92 265.976V234.021H575.749V266.559C575.749 271.457 574.699 275.772 572.6 279.504C570.578 283.158 567.741 286.035 564.086 288.134C560.432 290.155 556.195 291.166 551.375 291.166ZM588.647 290V234.021H601.476V290H588.647ZM601.476 258.862L597.044 256.646C597.044 249.571 598.599 243.856 601.709 239.503C604.897 235.071 609.678 232.855 616.054 232.855C618.852 232.855 621.379 233.36 623.634 234.371C625.889 235.382 627.988 237.015 629.932 239.269L621.535 247.899C620.524 246.811 619.397 246.033 618.153 245.567C616.909 245.1 615.47 244.867 613.838 244.867C610.261 244.867 607.307 245.995 604.974 248.249C602.642 250.504 601.476 254.041 601.476 258.862ZM660.204 291.166C654.684 291.166 649.669 289.883 645.16 287.318C640.728 284.752 637.23 281.253 634.664 276.822C632.098 272.39 630.815 267.453 630.815 262.011C630.815 256.491 632.098 251.554 634.664 247.2C637.23 242.768 640.728 239.269 645.16 236.704C649.669 234.138 654.684 232.855 660.204 232.855C664.558 232.855 668.601 233.71 672.333 235.421C676.142 237.054 679.369 239.425 682.012 242.535L673.616 251.048C671.983 249.104 670 247.666 667.668 246.733C665.413 245.722 662.925 245.217 660.204 245.217C657.016 245.217 654.179 245.956 651.691 247.433C649.281 248.832 647.376 250.776 645.976 253.264C644.654 255.752 643.994 258.667 643.994 262.011C643.994 265.276 644.654 268.192 645.976 270.757C647.376 273.245 649.281 275.228 651.691 276.705C654.179 278.105 657.016 278.804 660.204 278.804C662.925 278.804 665.413 278.338 667.668 277.405C670 276.394 671.983 274.917 673.616 272.973L682.012 281.487C679.369 284.597 676.142 287.007 672.333 288.717C668.601 290.35 664.558 291.166 660.204 291.166ZM716.129 291.166C710.531 291.166 705.478 289.922 700.968 287.434C696.537 284.869 692.999 281.37 690.356 276.938C687.79 272.507 686.507 267.531 686.507 262.011C686.507 256.491 687.79 251.554 690.356 247.2C692.921 242.768 696.381 239.269 700.735 236.704C705.167 234.138 710.065 232.855 715.429 232.855C720.638 232.855 725.226 234.06 729.191 236.47C733.234 238.881 736.382 242.185 738.637 246.383C740.97 250.582 742.136 255.363 742.136 260.728C742.136 261.661 742.058 262.633 741.903 263.643C741.825 264.576 741.669 265.626 741.436 266.792H695.487V256.296H734.789L730.007 260.495C729.852 257.074 729.191 254.197 728.025 251.865C726.858 249.532 725.187 247.744 723.01 246.5C720.911 245.256 718.306 244.634 715.196 244.634C711.931 244.634 709.093 245.334 706.683 246.733C704.272 248.133 702.407 250.115 701.085 252.681C699.763 255.169 699.102 258.162 699.102 261.661C699.102 265.159 699.802 268.231 701.201 270.874C702.601 273.517 704.583 275.578 707.149 277.055C709.715 278.454 712.669 279.154 716.012 279.154C718.889 279.154 721.533 278.649 723.943 277.638C726.431 276.627 728.53 275.15 730.24 273.206L738.404 281.487C735.683 284.674 732.378 287.084 728.491 288.717C724.604 290.35 720.483 291.166 716.129 291.166Z" fill="white"/>
<path d="M52.018 369L61.3446 346.209H63.5778L72.8715 369H69.5218L61.8701 349.723H63.0195L55.3021 369H52.018ZM56.4515 363.844V361.151H68.4381V363.844H56.4515ZM86.8934 369.328C86.0177 369.328 85.1858 369.219 84.3976 369C83.6313 368.759 82.9198 368.431 82.263 368.015C81.6062 367.577 81.037 367.062 80.5553 366.471L82.46 364.567C83.0293 365.267 83.6861 365.793 84.4304 366.143C85.1748 366.471 86.0068 366.636 86.9263 366.636C87.8458 366.636 88.5573 366.482 89.0609 366.176C89.5644 365.847 89.8162 365.399 89.8162 364.829C89.8162 364.26 89.6082 363.822 89.1922 363.516C88.7982 363.187 88.2837 362.925 87.6488 362.728C87.0139 362.509 86.3352 362.301 85.6127 362.104C84.9121 361.885 84.2443 361.611 83.6094 361.283C82.9745 360.954 82.4491 360.505 82.0331 359.936C81.639 359.367 81.442 358.612 81.442 357.67C81.442 356.729 81.6719 355.919 82.1316 355.24C82.5914 354.539 83.2263 354.003 84.0364 353.631C84.8683 353.259 85.8645 353.073 87.0248 353.073C88.2508 353.073 89.3346 353.291 90.276 353.729C91.2393 354.145 92.0274 354.78 92.6405 355.634L90.7357 357.539C90.2979 356.97 89.7505 356.532 89.0937 356.225C88.4588 355.919 87.7363 355.765 86.9263 355.765C86.0724 355.765 85.4156 355.919 84.9559 356.225C84.518 356.51 84.2991 356.915 84.2991 357.44C84.2991 357.966 84.4961 358.371 84.8902 358.655C85.2843 358.94 85.7988 359.181 86.4337 359.378C87.0905 359.575 87.7692 359.783 88.4698 360.002C89.1704 360.199 89.8381 360.473 90.473 360.823C91.1079 361.173 91.6224 361.644 92.0165 362.235C92.4325 362.826 92.6405 363.603 92.6405 364.567C92.6405 366.033 92.115 367.194 91.0641 368.048C90.0351 368.901 88.6449 369.328 86.8934 369.328ZM95.9494 369V353.401H98.905V369H95.9494ZM106.491 369V359.575C106.491 358.415 106.13 357.506 105.407 356.849C104.707 356.17 103.82 355.831 102.747 355.831C102.025 355.831 101.379 355.984 100.81 356.291C100.24 356.597 99.7807 357.024 99.4304 357.572C99.0801 358.119 98.905 358.776 98.905 359.542L97.6899 358.951C97.6899 357.769 97.9417 356.74 98.4452 355.864C98.9706 354.988 99.6822 354.31 100.58 353.828C101.477 353.324 102.485 353.073 103.601 353.073C104.696 353.073 105.681 353.313 106.557 353.795C107.454 354.277 108.155 354.955 108.658 355.831C109.184 356.707 109.447 357.747 109.447 358.951V369H106.491ZM117.033 369V359.575C117.033 358.415 116.671 357.506 115.949 356.849C115.248 356.17 114.373 355.831 113.322 355.831C112.599 355.831 111.942 355.984 111.351 356.291C110.782 356.597 110.322 357.024 109.972 357.572C109.622 358.119 109.447 358.776 109.447 359.542L107.772 358.951C107.837 357.747 108.155 356.718 108.724 355.864C109.315 354.988 110.071 354.31 110.99 353.828C111.91 353.324 112.917 353.073 114.011 353.073C115.15 353.073 116.168 353.313 117.066 353.795C117.963 354.277 118.675 354.955 119.2 355.831C119.747 356.707 120.021 357.758 120.021 358.984V369H117.033ZM130.677 369.328C129.254 369.328 127.962 368.978 126.802 368.278C125.641 367.555 124.722 366.581 124.043 365.355C123.386 364.129 123.058 362.749 123.058 361.217C123.058 359.684 123.386 358.305 124.043 357.079C124.722 355.853 125.63 354.879 126.769 354.156C127.929 353.434 129.232 353.073 130.677 353.073C131.859 353.073 132.91 353.324 133.829 353.828C134.771 354.31 135.526 354.988 136.095 355.864C136.665 356.718 136.982 357.714 137.048 358.852V363.549C136.982 364.665 136.665 365.661 136.095 366.537C135.548 367.413 134.804 368.102 133.862 368.606C132.943 369.088 131.881 369.328 130.677 369.328ZM131.169 366.537C132.636 366.537 133.818 366.044 134.716 365.059C135.614 364.052 136.062 362.771 136.062 361.217C136.062 360.144 135.855 359.214 135.439 358.425C135.044 357.615 134.475 356.991 133.731 356.554C132.986 356.094 132.122 355.864 131.136 355.864C130.151 355.864 129.276 356.094 128.509 356.554C127.765 357.013 127.174 357.648 126.736 358.458C126.32 359.246 126.112 360.155 126.112 361.184C126.112 362.235 126.32 363.165 126.736 363.975C127.174 364.764 127.776 365.388 128.542 365.847C129.308 366.307 130.184 366.537 131.169 366.537ZM135.865 369V364.796L136.424 360.987L135.865 357.21V353.401H138.854V369H135.865ZM143.157 369V353.401H146.113V369H143.157ZM146.113 360.1L144.996 359.608C144.996 357.615 145.456 356.028 146.375 354.846C147.295 353.664 148.619 353.073 150.349 353.073C151.137 353.073 151.849 353.215 152.484 353.499C153.118 353.762 153.71 354.211 154.257 354.846L152.319 356.849C151.991 356.499 151.63 356.247 151.236 356.094C150.842 355.941 150.382 355.864 149.856 355.864C148.762 355.864 147.864 356.214 147.163 356.915C146.463 357.615 146.113 358.677 146.113 360.1ZM158.671 369V346.866H161.627V369H158.671ZM154.829 356.094V353.401H165.469V356.094H154.829ZM167.406 372.612L169.442 368.704L170.493 368.442C170.384 368.683 170.241 368.88 170.066 369.033C169.913 369.186 169.716 369.263 169.475 369.263C169.015 369.263 168.588 369.077 168.194 368.704C167.822 368.31 167.636 367.829 167.636 367.259C167.636 366.625 167.844 366.099 168.26 365.683C168.676 365.245 169.201 365.026 169.836 365.026C170.405 365.026 170.909 365.245 171.347 365.683C171.785 366.099 172.004 366.625 172.004 367.259C172.004 367.5 171.949 367.796 171.839 368.146C171.752 368.475 171.566 368.901 171.281 369.427L169.114 373.532L167.406 372.612ZM183.15 369V353.401H186.105V369H183.15ZM184.627 350.281C184.08 350.281 183.631 350.106 183.281 349.756C182.931 349.384 182.755 348.924 182.755 348.376C182.755 347.851 182.931 347.413 183.281 347.063C183.631 346.691 184.08 346.505 184.627 346.505C185.175 346.505 185.623 346.691 185.974 347.063C186.324 347.413 186.499 347.851 186.499 348.376C186.499 348.924 186.324 349.384 185.974 349.756C185.623 350.106 185.175 350.281 184.627 350.281ZM201.495 369V359.903C201.495 358.721 201.123 357.747 200.379 356.981C199.634 356.214 198.671 355.831 197.489 355.831C196.7 355.831 196 356.006 195.387 356.357C194.774 356.707 194.292 357.189 193.942 357.802C193.592 358.415 193.416 359.115 193.416 359.903L192.201 359.214C192.201 358.031 192.464 356.981 192.989 356.061C193.515 355.141 194.248 354.419 195.19 353.894C196.131 353.346 197.193 353.073 198.375 353.073C199.558 353.073 200.597 353.368 201.495 353.959C202.415 354.55 203.137 355.328 203.663 356.291C204.188 357.232 204.451 358.239 204.451 359.312V369H201.495ZM190.461 369V353.401H193.416V369H190.461ZM215.053 369.328C213.608 369.328 212.316 368.978 211.178 368.278C210.04 367.555 209.131 366.581 208.452 365.355C207.795 364.129 207.467 362.749 207.467 361.217C207.467 359.684 207.795 358.305 208.452 357.079C209.131 355.853 210.04 354.879 211.178 354.156C212.316 353.434 213.608 353.073 215.053 353.073C216.214 353.073 217.264 353.324 218.206 353.828C219.147 354.31 219.903 354.988 220.472 355.864C221.063 356.718 221.391 357.714 221.457 358.852V363.549C221.391 364.665 221.074 365.661 220.505 366.537C219.935 367.413 219.18 368.102 218.239 368.606C217.297 369.088 216.235 369.328 215.053 369.328ZM215.546 366.537C216.531 366.537 217.385 366.307 218.107 365.847C218.852 365.388 219.432 364.764 219.848 363.975C220.264 363.165 220.472 362.246 220.472 361.217C220.472 360.144 220.253 359.214 219.815 358.425C219.399 357.637 218.819 357.013 218.074 356.554C217.352 356.094 216.498 355.864 215.513 355.864C214.528 355.864 213.663 356.094 212.919 356.554C212.174 357.013 211.583 357.648 211.145 358.458C210.729 359.246 210.521 360.155 210.521 361.184C210.521 362.235 210.729 363.165 211.145 363.975C211.583 364.764 212.174 365.388 212.919 365.847C213.685 366.307 214.561 366.537 215.546 366.537ZM223.263 369H220.275V364.796L220.833 360.987L220.275 357.21V345.552H223.263V369ZM234.791 369.328C233.237 369.328 231.835 368.978 230.588 368.278C229.34 367.555 228.354 366.581 227.632 365.355C226.909 364.129 226.548 362.738 226.548 361.184C226.548 359.652 226.899 358.272 227.599 357.046C228.322 355.82 229.285 354.857 230.489 354.156C231.715 353.434 233.083 353.073 234.594 353.073C236.039 353.073 237.309 353.401 238.403 354.058C239.52 354.715 240.385 355.623 240.998 356.783C241.633 357.944 241.95 359.257 241.95 360.724C241.95 360.943 241.939 361.184 241.917 361.447C241.895 361.688 241.852 361.972 241.786 362.301H228.617V359.838H240.21L239.126 360.79C239.126 359.739 238.94 358.852 238.568 358.13C238.195 357.386 237.67 356.816 236.991 356.422C236.313 356.006 235.492 355.798 234.528 355.798C233.521 355.798 232.635 356.017 231.868 356.455C231.102 356.893 230.511 357.506 230.095 358.294C229.679 359.082 229.471 360.013 229.471 361.086C229.471 362.18 229.69 363.144 230.128 363.975C230.566 364.786 231.19 365.42 232 365.88C232.81 366.318 233.74 366.537 234.791 366.537C235.667 366.537 236.466 366.384 237.188 366.077C237.933 365.771 238.568 365.311 239.093 364.698L240.998 366.636C240.253 367.511 239.334 368.179 238.239 368.639C237.167 369.099 236.017 369.328 234.791 369.328ZM253.383 369.328C252.201 369.328 251.128 369.088 250.165 368.606C249.223 368.102 248.468 367.413 247.899 366.537C247.329 365.661 247.012 364.665 246.946 363.549V358.852C247.012 357.714 247.329 356.718 247.899 355.864C248.49 354.988 249.256 354.31 250.197 353.828C251.161 353.324 252.223 353.073 253.383 353.073C254.806 353.073 256.087 353.434 257.225 354.156C258.386 354.879 259.294 355.853 259.951 357.079C260.608 358.305 260.936 359.684 260.936 361.217C260.936 362.749 260.608 364.129 259.951 365.355C259.294 366.581 258.386 367.555 257.225 368.278C256.087 368.978 254.806 369.328 253.383 369.328ZM245.173 375.535V353.401H248.129V357.506L247.57 361.283L248.129 365.092V375.535H245.173ZM252.89 366.537C253.876 366.537 254.74 366.307 255.485 365.847C256.229 365.388 256.82 364.764 257.258 363.975C257.696 363.165 257.915 362.235 257.915 361.184C257.915 360.155 257.696 359.236 257.258 358.425C256.82 357.615 256.229 356.991 255.485 356.554C254.74 356.094 253.886 355.864 252.923 355.864C251.938 355.864 251.073 356.094 250.329 356.554C249.584 356.991 249.004 357.615 248.588 358.425C248.172 359.236 247.964 360.166 247.964 361.217C247.964 362.246 248.161 363.165 248.555 363.975C248.971 364.764 249.552 365.388 250.296 365.847C251.062 366.307 251.927 366.537 252.89 366.537ZM271.512 369.328C269.957 369.328 268.556 368.978 267.308 368.278C266.06 367.555 265.075 366.581 264.353 365.355C263.63 364.129 263.269 362.738 263.269 361.184C263.269 359.652 263.619 358.272 264.32 357.046C265.042 355.82 266.005 354.857 267.21 354.156C268.436 353.434 269.804 353.073 271.315 353.073C272.76 353.073 274.029 353.401 275.124 354.058C276.241 354.715 277.105 355.623 277.718 356.783C278.353 357.944 278.671 359.257 278.671 360.724C278.671 360.943 278.66 361.184 278.638 361.447C278.616 361.688 278.572 361.972 278.507 362.301H265.338V359.838H276.93L275.847 360.79C275.847 359.739 275.66 358.852 275.288 358.13C274.916 357.386 274.391 356.816 273.712 356.422C273.033 356.006 272.212 355.798 271.249 355.798C270.242 355.798 269.355 356.017 268.589 356.455C267.823 356.893 267.232 357.506 266.816 358.294C266.4 359.082 266.192 360.013 266.192 361.086C266.192 362.18 266.411 363.144 266.848 363.975C267.286 364.786 267.91 365.42 268.72 365.88C269.53 366.318 270.461 366.537 271.512 366.537C272.387 366.537 273.187 366.384 273.909 366.077C274.653 365.771 275.288 365.311 275.814 364.698L277.718 366.636C276.974 367.511 276.055 368.179 274.96 368.639C273.887 369.099 272.738 369.328 271.512 369.328ZM292.928 369V359.903C292.928 358.721 292.556 357.747 291.811 356.981C291.067 356.214 290.104 355.831 288.921 355.831C288.133 355.831 287.433 356.006 286.82 356.357C286.207 356.707 285.725 357.189 285.375 357.802C285.024 358.415 284.849 359.115 284.849 359.903L283.634 359.214C283.634 358.031 283.897 356.981 284.422 356.061C284.948 355.141 285.681 354.419 286.622 353.894C287.564 353.346 288.626 353.073 289.808 353.073C290.99 353.073 292.03 353.368 292.928 353.959C293.847 354.55 294.57 355.328 295.095 356.291C295.621 357.232 295.883 358.239 295.883 359.312V369H292.928ZM281.894 369V353.401H284.849V369H281.894ZM306.486 369.328C305.041 369.328 303.749 368.978 302.611 368.278C301.472 367.555 300.564 366.581 299.885 365.355C299.228 364.129 298.9 362.749 298.9 361.217C298.9 359.684 299.228 358.305 299.885 357.079C300.564 355.853 301.472 354.879 302.611 354.156C303.749 353.434 305.041 353.073 306.486 353.073C307.646 353.073 308.697 353.324 309.638 353.828C310.58 354.31 311.335 354.988 311.904 355.864C312.496 356.718 312.824 357.714 312.89 358.852V363.549C312.824 364.665 312.507 365.661 311.937 366.537C311.368 367.413 310.613 368.102 309.671 368.606C308.73 369.088 307.668 369.328 306.486 369.328ZM306.978 366.537C307.964 366.537 308.817 366.307 309.54 365.847C310.284 365.388 310.865 364.764 311.28 363.975C311.696 363.165 311.904 362.246 311.904 361.217C311.904 360.144 311.686 359.214 311.248 358.425C310.832 357.637 310.252 357.013 309.507 356.554C308.785 356.094 307.931 355.864 306.946 355.864C305.96 355.864 305.096 356.094 304.351 356.554C303.607 357.013 303.016 357.648 302.578 358.458C302.162 359.246 301.954 360.155 301.954 361.184C301.954 362.235 302.162 363.165 302.578 363.975C303.016 364.764 303.607 365.388 304.351 365.847C305.118 366.307 305.993 366.537 306.978 366.537ZM314.696 369H311.707V364.796L312.266 360.987L311.707 357.21V345.552H314.696V369ZM326.224 369.328C324.669 369.328 323.268 368.978 322.02 368.278C320.772 367.555 319.787 366.581 319.065 365.355C318.342 364.129 317.981 362.738 317.981 361.184C317.981 359.652 318.331 358.272 319.032 357.046C319.754 355.82 320.718 354.857 321.922 354.156C323.148 353.434 324.516 353.073 326.027 353.073C327.472 353.073 328.742 353.401 329.836 354.058C330.953 354.715 331.818 355.623 332.431 356.783C333.065 357.944 333.383 359.257 333.383 360.724C333.383 360.943 333.372 361.184 333.35 361.447C333.328 361.688 333.284 361.972 333.219 362.301H320.05V359.838H331.642L330.559 360.79C330.559 359.739 330.373 358.852 330 358.13C329.628 357.386 329.103 356.816 328.424 356.422C327.745 356.006 326.924 355.798 325.961 355.798C324.954 355.798 324.067 356.017 323.301 356.455C322.535 356.893 321.944 357.506 321.528 358.294C321.112 359.082 320.904 360.013 320.904 361.086C320.904 362.18 321.123 363.144 321.56 363.975C321.998 364.786 322.622 365.42 323.432 365.88C324.242 366.318 325.173 366.537 326.224 366.537C327.1 366.537 327.899 366.384 328.621 366.077C329.365 365.771 330 365.311 330.526 364.698L332.431 366.636C331.686 367.511 330.767 368.179 329.672 368.639C328.599 369.099 327.45 369.328 326.224 369.328ZM347.64 369V359.903C347.64 358.721 347.268 357.747 346.523 356.981C345.779 356.214 344.816 355.831 343.633 355.831C342.845 355.831 342.145 356.006 341.532 356.357C340.919 356.707 340.437 357.189 340.087 357.802C339.736 358.415 339.561 359.115 339.561 359.903L338.346 359.214C338.346 358.031 338.609 356.981 339.134 356.061C339.66 355.141 340.393 354.419 341.335 353.894C342.276 353.346 343.338 353.073 344.52 353.073C345.702 353.073 346.742 353.368 347.64 353.959C348.559 354.55 349.282 355.328 349.807 356.291C350.333 357.232 350.595 358.239 350.595 359.312V369H347.64ZM336.606 369V353.401H339.561V369H336.606ZM356.802 369V346.866H359.758V369H356.802ZM352.96 356.094V353.401H363.6V356.094H352.96ZM378.285 369.328C377.409 369.328 376.577 369.219 375.789 369C375.023 368.759 374.311 368.431 373.655 368.015C372.998 367.577 372.429 367.062 371.947 366.471L373.852 364.567C374.421 365.267 375.078 365.793 375.822 366.143C376.566 366.471 377.398 366.636 378.318 366.636C379.237 366.636 379.949 366.482 380.452 366.176C380.956 365.847 381.208 365.399 381.208 364.829C381.208 364.26 381 363.822 380.584 363.516C380.19 363.187 379.675 362.925 379.04 362.728C378.405 362.509 377.727 362.301 377.004 362.104C376.304 361.885 375.636 361.611 375.001 361.283C374.366 360.954 373.841 360.505 373.425 359.936C373.031 359.367 372.834 358.612 372.834 357.67C372.834 356.729 373.063 355.919 373.523 355.24C373.983 354.539 374.618 354.003 375.428 353.631C376.26 353.259 377.256 353.073 378.416 353.073C379.642 353.073 380.726 353.291 381.668 353.729C382.631 354.145 383.419 354.78 384.032 355.634L382.127 357.539C381.689 356.97 381.142 356.532 380.485 356.225C379.85 355.919 379.128 355.765 378.318 355.765C377.464 355.765 376.807 355.919 376.347 356.225C375.91 356.51 375.691 356.915 375.691 357.44C375.691 357.966 375.888 358.371 376.282 358.655C376.676 358.94 377.19 359.181 377.825 359.378C378.482 359.575 379.161 359.783 379.861 360.002C380.562 360.199 381.23 360.473 381.865 360.823C382.5 361.173 383.014 361.644 383.408 362.235C383.824 362.826 384.032 363.603 384.032 364.567C384.032 366.033 383.507 367.194 382.456 368.048C381.427 368.901 380.037 369.328 378.285 369.328ZM394.467 369.328C392.935 369.328 391.555 368.967 390.329 368.245C389.103 367.522 388.129 366.548 387.407 365.322C386.684 364.074 386.323 362.684 386.323 361.151C386.323 359.641 386.684 358.283 387.407 357.079C388.129 355.853 389.103 354.879 390.329 354.156C391.555 353.434 392.935 353.073 394.467 353.073C395.978 353.073 397.346 353.434 398.572 354.156C399.82 354.857 400.805 355.82 401.528 357.046C402.25 358.272 402.612 359.641 402.612 361.151C402.612 362.684 402.25 364.074 401.528 365.322C400.805 366.548 399.82 367.522 398.572 368.245C397.346 368.967 395.978 369.328 394.467 369.328ZM394.467 366.471C395.452 366.471 396.328 366.241 397.094 365.782C397.861 365.322 398.463 364.698 398.901 363.91C399.339 363.1 399.557 362.18 399.557 361.151C399.557 360.144 399.328 359.246 398.868 358.458C398.43 357.67 397.828 357.057 397.062 356.619C396.317 356.16 395.452 355.93 394.467 355.93C393.482 355.93 392.606 356.16 391.84 356.619C391.074 357.057 390.472 357.67 390.034 358.458C389.596 359.246 389.377 360.144 389.377 361.151C389.377 362.18 389.596 363.1 390.034 363.91C390.472 364.698 391.074 365.322 391.84 365.782C392.606 366.241 393.482 366.471 394.467 366.471ZM405.942 369V345.552H408.897V369H405.942ZM419.494 369.328C418.224 369.328 417.075 369.044 416.046 368.475C415.039 367.883 414.251 367.073 413.682 366.044C413.112 365.015 412.828 363.822 412.828 362.465V353.401H415.783V362.333C415.783 363.187 415.926 363.932 416.21 364.567C416.517 365.18 416.955 365.65 417.524 365.979C418.093 366.307 418.761 366.471 419.527 366.471C420.687 366.471 421.596 366.11 422.253 365.388C422.91 364.643 423.238 363.625 423.238 362.333V353.401H426.194V362.465C426.194 363.822 425.909 365.015 425.34 366.044C424.771 367.073 423.982 367.883 422.975 368.475C421.99 369.044 420.83 369.328 419.494 369.328ZM432.552 369V346.866H435.508V369H432.552ZM428.71 356.094V353.401H439.35V356.094H428.71ZM442.278 369V353.401H445.234V369H442.278ZM443.756 350.281C443.209 350.281 442.76 350.106 442.41 349.756C442.059 349.384 441.884 348.924 441.884 348.376C441.884 347.851 442.059 347.413 442.41 347.063C442.76 346.691 443.209 346.505 443.756 346.505C444.303 346.505 444.752 346.691 445.103 347.063C445.453 347.413 445.628 347.851 445.628 348.376C445.628 348.924 445.453 349.384 445.103 349.756C444.752 350.106 444.303 350.281 443.756 350.281ZM456.716 369.328C455.183 369.328 453.804 368.967 452.578 368.245C451.352 367.522 450.378 366.548 449.655 365.322C448.933 364.074 448.572 362.684 448.572 361.151C448.572 359.641 448.933 358.283 449.655 357.079C450.378 355.853 451.352 354.879 452.578 354.156C453.804 353.434 455.183 353.073 456.716 353.073C458.227 353.073 459.595 353.434 460.821 354.156C462.069 354.857 463.054 355.82 463.777 357.046C464.499 358.272 464.86 359.641 464.86 361.151C464.86 362.684 464.499 364.074 463.777 365.322C463.054 366.548 462.069 367.522 460.821 368.245C459.595 368.967 458.227 369.328 456.716 369.328ZM456.716 366.471C457.701 366.471 458.577 366.241 459.343 365.782C460.109 365.322 460.711 364.698 461.149 363.91C461.587 363.1 461.806 362.18 461.806 361.151C461.806 360.144 461.576 359.246 461.116 358.458C460.679 357.67 460.077 357.057 459.31 356.619C458.566 356.16 457.701 355.93 456.716 355.93C455.731 355.93 454.855 356.16 454.089 356.619C453.322 357.057 452.72 357.67 452.282 358.458C451.845 359.246 451.626 360.144 451.626 361.151C451.626 362.18 451.845 363.1 452.282 363.91C452.72 364.698 453.322 365.322 454.089 365.782C454.855 366.241 455.731 366.471 456.716 366.471ZM479.225 369V359.903C479.225 358.721 478.853 357.747 478.108 356.981C477.364 356.214 476.4 355.831 475.218 355.831C474.43 355.831 473.729 356.006 473.116 356.357C472.503 356.707 472.022 357.189 471.671 357.802C471.321 358.415 471.146 359.115 471.146 359.903L469.931 359.214C469.931 358.031 470.194 356.981 470.719 356.061C471.245 355.141 471.978 354.419 472.919 353.894C473.861 353.346 474.923 353.073 476.105 353.073C477.287 353.073 478.327 353.368 479.225 353.959C480.144 354.55 480.867 355.328 481.392 356.291C481.918 357.232 482.18 358.239 482.18 359.312V369H479.225ZM468.19 369V353.401H471.146V369H468.19ZM493.013 369V345.552H495.969V369H493.013ZM500.326 369V353.401H503.281V369H500.326ZM501.804 350.281C501.256 350.281 500.807 350.106 500.457 349.756C500.107 349.384 499.932 348.924 499.932 348.376C499.932 347.851 500.107 347.413 500.457 347.063C500.807 346.691 501.256 346.505 501.804 346.505C502.351 346.505 502.8 346.691 503.15 347.063C503.5 347.413 503.675 347.851 503.675 348.376C503.675 348.924 503.5 349.384 503.15 349.756C502.8 350.106 502.351 350.281 501.804 350.281ZM518.671 369V359.903C518.671 358.721 518.299 357.747 517.555 356.981C516.81 356.214 515.847 355.831 514.665 355.831C513.877 355.831 513.176 356.006 512.563 356.357C511.95 356.707 511.468 357.189 511.118 357.802C510.768 358.415 510.593 359.115 510.593 359.903L509.378 359.214C509.378 358.031 509.64 356.981 510.166 356.061C510.691 355.141 511.425 354.419 512.366 353.894C513.307 353.346 514.369 353.073 515.551 353.073C516.734 353.073 517.774 353.368 518.671 353.959C519.591 354.55 520.313 355.328 520.839 356.291C521.364 357.232 521.627 358.239 521.627 359.312V369H518.671ZM507.637 369V353.401H510.593V369H507.637ZM535.612 369L528.321 361.02L535.546 353.401H539.126L531.08 361.808L531.211 360.1L539.421 369H535.612ZM525.629 369V345.552H528.584V369H525.629ZM541.44 369V353.401H544.396V369H541.44ZM542.918 350.281C542.37 350.281 541.922 350.106 541.571 349.756C541.221 349.384 541.046 348.924 541.046 348.376C541.046 347.851 541.221 347.413 541.571 347.063C541.922 346.691 542.37 346.505 542.918 346.505C543.465 346.505 543.914 346.691 544.264 347.063C544.615 347.413 544.79 347.851 544.79 348.376C544.79 348.924 544.615 349.384 544.264 349.756C543.914 350.106 543.465 350.281 542.918 350.281ZM559.786 369V359.903C559.786 358.721 559.413 357.747 558.669 356.981C557.925 356.214 556.961 355.831 555.779 355.831C554.991 355.831 554.29 356.006 553.677 356.357C553.064 356.707 552.583 357.189 552.232 357.802C551.882 358.415 551.707 359.115 551.707 359.903L550.492 359.214C550.492 358.031 550.754 356.981 551.28 356.061C551.805 355.141 552.539 354.419 553.48 353.894C554.422 353.346 555.483 353.073 556.666 353.073C557.848 353.073 558.888 353.368 559.786 353.959C560.705 354.55 561.428 355.328 561.953 356.291C562.478 357.232 562.741 358.239 562.741 359.312V369H559.786ZM548.751 369V353.401H551.707V369H548.751ZM573.212 375.864C571.614 375.864 570.191 375.568 568.943 374.977C567.717 374.386 566.732 373.554 565.987 372.481L567.892 370.543C568.527 371.354 569.282 371.967 570.158 372.383C571.034 372.82 572.074 373.039 573.278 373.039C574.876 373.039 576.135 372.612 577.055 371.759C577.996 370.927 578.467 369.799 578.467 368.376V364.501L578.992 360.987L578.467 357.506V353.401H581.422V368.376C581.422 369.865 581.072 371.167 580.371 372.284C579.693 373.401 578.729 374.276 577.481 374.911C576.255 375.546 574.832 375.864 573.212 375.864ZM573.212 368.737C571.789 368.737 570.508 368.398 569.37 367.719C568.253 367.041 567.367 366.11 566.71 364.928C566.053 363.724 565.725 362.377 565.725 360.888C565.725 359.4 566.053 358.075 566.71 356.915C567.367 355.733 568.253 354.802 569.37 354.123C570.508 353.423 571.789 353.073 573.212 353.073C574.438 353.073 575.522 353.313 576.463 353.795C577.405 354.277 578.149 354.955 578.697 355.831C579.266 356.685 579.572 357.692 579.616 358.852V362.99C579.55 364.129 579.233 365.136 578.664 366.012C578.116 366.865 577.372 367.533 576.431 368.015C575.489 368.496 574.416 368.737 573.212 368.737ZM573.803 365.946C574.767 365.946 575.61 365.738 576.332 365.322C577.076 364.906 577.646 364.326 578.04 363.581C578.434 362.815 578.631 361.928 578.631 360.921C578.631 359.914 578.423 359.039 578.007 358.294C577.613 357.528 577.055 356.937 576.332 356.521C575.61 356.083 574.756 355.864 573.771 355.864C572.785 355.864 571.921 356.083 571.176 356.521C570.432 356.937 569.841 357.528 569.403 358.294C568.987 359.039 568.779 359.903 568.779 360.888C568.779 361.874 568.987 362.749 569.403 363.516C569.841 364.282 570.432 364.884 571.176 365.322C571.942 365.738 572.818 365.946 573.803 365.946ZM597.715 369.131L590.949 353.401H594.233L599.258 365.716H598.207L603.494 353.401H606.778L599.488 369.131H597.715ZM593.248 375.535L597.846 366.11L599.488 369.131L596.532 375.535H593.248ZM615.721 369.328C614.188 369.328 612.809 368.967 611.583 368.245C610.357 367.522 609.383 366.548 608.66 365.322C607.938 364.074 607.577 362.684 607.577 361.151C607.577 359.641 607.938 358.283 608.66 357.079C609.383 355.853 610.357 354.879 611.583 354.156C612.809 353.434 614.188 353.073 615.721 353.073C617.232 353.073 618.6 353.434 619.826 354.156C621.074 354.857 622.059 355.82 622.782 357.046C623.504 358.272 623.865 359.641 623.865 361.151C623.865 362.684 623.504 364.074 622.782 365.322C622.059 366.548 621.074 367.522 619.826 368.245C618.6 368.967 617.232 369.328 615.721 369.328ZM615.721 366.471C616.706 366.471 617.582 366.241 618.348 365.782C619.114 365.322 619.716 364.698 620.154 363.91C620.592 363.1 620.811 362.18 620.811 361.151C620.811 360.144 620.581 359.246 620.122 358.458C619.684 357.67 619.082 357.057 618.315 356.619C617.571 356.16 616.706 355.93 615.721 355.93C614.736 355.93 613.86 356.16 613.094 356.619C612.327 357.057 611.725 357.67 611.288 358.458C610.85 359.246 610.631 360.144 610.631 361.151C610.631 362.18 610.85 363.1 611.288 363.91C611.725 364.698 612.327 365.322 613.094 365.782C613.86 366.241 614.736 366.471 615.721 366.471ZM633.468 369.328C632.198 369.328 631.049 369.044 630.02 368.475C629.013 367.883 628.224 367.073 627.655 366.044C627.086 365.015 626.801 363.822 626.801 362.465V353.401H629.757V362.333C629.757 363.187 629.899 363.932 630.184 364.567C630.49 365.18 630.928 365.65 631.498 365.979C632.067 366.307 632.734 366.471 633.501 366.471C634.661 366.471 635.57 366.11 636.226 365.388C636.883 364.643 637.212 363.625 637.212 362.333V353.401H640.167V362.465C640.167 363.822 639.883 365.015 639.313 366.044C638.744 367.073 637.956 367.883 636.949 368.475C635.964 369.044 634.803 369.328 633.468 369.328ZM644.129 369V353.401H647.084V369H644.129ZM647.084 360.1L645.968 359.608C645.968 357.615 646.427 356.028 647.347 354.846C648.266 353.664 649.591 353.073 651.321 353.073C652.109 353.073 652.82 353.215 653.455 353.499C654.09 353.762 654.681 354.211 655.229 354.846L653.291 356.849C652.963 356.499 652.601 356.247 652.207 356.094C651.813 355.941 651.353 355.864 650.828 355.864C649.733 355.864 648.836 356.214 648.135 356.915C647.435 357.615 647.084 358.677 647.084 360.1ZM672.928 369.328C671.746 369.328 670.673 369.088 669.709 368.606C668.768 368.102 668.013 367.413 667.444 366.537C666.874 365.661 666.557 364.665 666.491 363.549V358.852C666.557 357.714 666.874 356.718 667.444 355.864C668.035 354.988 668.801 354.31 669.742 353.828C670.706 353.324 671.767 353.073 672.928 353.073C674.351 353.073 675.632 353.434 676.77 354.156C677.93 354.879 678.839 355.853 679.496 357.079C680.153 358.305 680.481 359.684 680.481 361.217C680.481 362.749 680.153 364.129 679.496 365.355C678.839 366.581 677.93 367.555 676.77 368.278C675.632 368.978 674.351 369.328 672.928 369.328ZM664.718 375.535V353.401H667.673V357.506L667.115 361.283L667.673 365.092V375.535H664.718ZM672.435 366.537C673.42 366.537 674.285 366.307 675.03 365.847C675.774 365.388 676.365 364.764 676.803 363.975C677.241 363.165 677.46 362.235 677.46 361.184C677.46 360.155 677.241 359.236 676.803 358.425C676.365 357.615 675.774 356.991 675.03 356.554C674.285 356.094 673.431 355.864 672.468 355.864C671.483 355.864 670.618 356.094 669.874 356.554C669.129 356.991 668.549 357.615 668.133 358.425C667.717 359.236 667.509 360.166 667.509 361.217C667.509 362.246 667.706 363.165 668.1 363.975C668.516 364.764 669.096 365.388 669.841 365.847C670.607 366.307 671.472 366.537 672.435 366.537ZM694.866 369V359.903C694.866 358.721 694.494 357.747 693.749 356.981C693.005 356.214 692.042 355.831 690.86 355.831C690.071 355.831 689.371 356.006 688.758 356.357C688.145 356.707 687.663 357.189 687.313 357.802C686.963 358.415 686.787 359.115 686.787 359.903L685.572 359.214C685.572 358.031 685.835 356.981 686.36 356.061C686.886 355.141 687.619 354.419 688.561 353.894C689.502 353.346 690.564 353.073 691.746 353.073C692.928 353.073 693.968 353.335 694.866 353.861C695.786 354.386 696.508 355.12 697.033 356.061C697.559 357.002 697.822 358.086 697.822 359.312V369H694.866ZM683.832 369V345.552H686.787V369H683.832ZM706.946 369.131L700.181 353.401H703.465L708.49 365.716H707.439L712.726 353.401H716.01L708.72 369.131H706.946ZM702.48 375.535L707.078 366.11L708.72 369.131L705.764 375.535H702.48ZM723.074 369.328C722.198 369.328 721.366 369.219 720.578 369C719.812 368.759 719.1 368.431 718.443 368.015C717.787 367.577 717.217 367.062 716.736 366.471L718.64 364.567C719.21 365.267 719.866 365.793 720.611 366.143C721.355 366.471 722.187 366.636 723.107 366.636C724.026 366.636 724.738 366.482 725.241 366.176C725.745 365.847 725.997 365.399 725.997 364.829C725.997 364.26 725.789 363.822 725.373 363.516C724.979 363.187 724.464 362.925 723.829 362.728C723.194 362.509 722.516 362.301 721.793 362.104C721.093 361.885 720.425 361.611 719.79 361.283C719.155 360.954 718.63 360.505 718.214 359.936C717.819 359.367 717.622 358.612 717.622 357.67C717.622 356.729 717.852 355.919 718.312 355.24C718.772 354.539 719.407 354.003 720.217 353.631C721.049 353.259 722.045 353.073 723.205 353.073C724.431 353.073 725.515 353.291 726.456 353.729C727.42 354.145 728.208 354.78 728.821 355.634L726.916 357.539C726.478 356.97 725.931 356.532 725.274 356.225C724.639 355.919 723.917 355.765 723.107 355.765C722.253 355.765 721.596 355.919 721.136 356.225C720.698 356.51 720.48 356.915 720.48 357.44C720.48 357.966 720.677 358.371 721.071 358.655C721.465 358.94 721.979 359.181 722.614 359.378C723.271 359.575 723.95 359.783 724.65 360.002C725.351 360.199 726.019 360.473 726.653 360.823C727.288 361.173 727.803 361.644 728.197 362.235C728.613 362.826 728.821 363.603 728.821 364.567C728.821 366.033 728.295 367.194 727.245 368.048C726.216 368.901 724.825 369.328 723.074 369.328ZM732.163 369V353.401H735.118V369H732.163ZM733.64 350.281C733.093 350.281 732.644 350.106 732.294 349.756C731.944 349.384 731.769 348.924 731.769 348.376C731.769 347.851 731.944 347.413 732.294 347.063C732.644 346.691 733.093 346.505 733.64 346.505C734.188 346.505 734.637 346.691 734.987 347.063C735.337 347.413 735.512 347.851 735.512 348.376C735.512 348.924 735.337 349.384 734.987 349.756C734.637 350.106 734.188 350.281 733.64 350.281ZM746.6 369.328C745.068 369.328 743.677 368.967 742.43 368.245C741.203 367.522 740.229 366.548 739.507 365.322C738.806 364.074 738.456 362.695 738.456 361.184C738.456 359.652 738.806 358.272 739.507 357.046C740.229 355.82 741.203 354.857 742.43 354.156C743.677 353.434 745.068 353.073 746.6 353.073C747.804 353.073 748.921 353.302 749.95 353.762C750.979 354.2 751.866 354.846 752.61 355.7L750.64 357.67C750.158 357.101 749.567 356.674 748.866 356.389C748.187 356.083 747.432 355.93 746.6 355.93C745.615 355.93 744.739 356.16 743.973 356.619C743.207 357.057 742.605 357.67 742.167 358.458C741.729 359.246 741.51 360.155 741.51 361.184C741.51 362.213 741.729 363.122 742.167 363.91C742.605 364.698 743.207 365.322 743.973 365.782C744.739 366.241 745.615 366.471 746.6 366.471C747.432 366.471 748.187 366.329 748.866 366.044C749.567 365.738 750.169 365.3 750.672 364.731L752.61 366.701C751.887 367.533 751.001 368.179 749.95 368.639C748.921 369.099 747.804 369.328 746.6 369.328ZM761.854 369.328C760.431 369.328 759.139 368.978 757.979 368.278C756.819 367.555 755.899 366.581 755.22 365.355C754.564 364.129 754.235 362.749 754.235 361.217C754.235 359.684 754.564 358.305 755.22 357.079C755.899 355.853 756.808 354.879 757.946 354.156C759.107 353.434 760.409 353.073 761.854 353.073C763.036 353.073 764.087 353.324 765.007 353.828C765.948 354.31 766.704 354.988 767.273 355.864C767.842 356.718 768.159 357.714 768.225 358.852V363.549C768.159 364.665 767.842 365.661 767.273 366.537C766.725 367.413 765.981 368.102 765.04 368.606C764.12 369.088 763.058 369.328 761.854 369.328ZM762.347 366.537C763.814 366.537 764.996 366.044 765.893 365.059C766.791 364.052 767.24 362.771 767.24 361.217C767.24 360.144 767.032 359.214 766.616 358.425C766.222 357.615 765.653 356.991 764.908 356.554C764.164 356.094 763.299 355.864 762.314 355.864C761.329 355.864 760.453 356.094 759.687 356.554C758.942 357.013 758.351 357.648 757.913 358.458C757.497 359.246 757.289 360.155 757.289 361.184C757.289 362.235 757.497 363.165 757.913 363.975C758.351 364.764 758.953 365.388 759.72 365.847C760.486 366.307 761.362 366.537 762.347 366.537ZM767.043 369V364.796L767.601 360.987L767.043 357.21V353.401H770.031V369H767.043ZM774.334 369V345.552H777.29V369H774.334ZM59.7683 400.328C58.3233 400.328 57.0316 399.978 55.8932 399.278C54.7547 398.555 53.8461 397.581 53.1674 396.355C52.5106 395.129 52.1822 393.749 52.1822 392.217C52.1822 390.684 52.5106 389.305 53.1674 388.079C53.8461 386.853 54.7547 385.879 55.8932 385.156C57.0316 384.434 58.3233 384.073 59.7683 384.073C60.9287 384.073 61.9795 384.324 62.921 384.828C63.8624 385.31 64.6177 385.988 65.1869 386.864C65.778 387.718 66.1064 388.714 66.1721 389.852V394.549C66.1064 395.665 65.789 396.661 65.2198 397.537C64.6505 398.413 63.8952 399.102 62.9538 399.606C62.0124 400.088 60.9505 400.328 59.7683 400.328ZM60.2609 397.537C61.2461 397.537 62.0999 397.307 62.8224 396.847C63.5668 396.388 64.147 395.764 64.563 394.975C64.9789 394.165 65.1869 393.246 65.1869 392.217C65.1869 391.144 64.968 390.214 64.5301 389.425C64.1141 388.637 63.534 388.013 62.7896 387.554C62.0671 387.094 61.2133 386.864 60.2281 386.864C59.2429 386.864 58.3781 387.094 57.6337 387.554C56.8893 388.013 56.2982 388.648 55.8603 389.458C55.4444 390.246 55.2364 391.155 55.2364 392.184C55.2364 393.235 55.4444 394.165 55.8603 394.975C56.2982 395.764 56.8893 396.388 57.6337 396.847C58.4 397.307 59.2757 397.537 60.2609 397.537ZM67.9783 400H64.9899V395.796L65.5482 391.987L64.9899 388.21V376.552H67.9783V400ZM79.5062 400.328C77.9518 400.328 76.5506 399.978 75.3027 399.278C74.0548 398.555 73.0696 397.581 72.3471 396.355C71.6246 395.129 71.2634 393.738 71.2634 392.184C71.2634 390.652 71.6137 389.272 72.3142 388.046C73.0367 386.82 74 385.857 75.2042 385.156C76.4302 384.434 77.7985 384.073 79.3092 384.073C80.7541 384.073 82.024 384.401 83.1186 385.058C84.2352 385.715 85.1 386.623 85.713 387.783C86.3479 388.944 86.6654 390.257 86.6654 391.724C86.6654 391.943 86.6544 392.184 86.6325 392.447C86.6106 392.688 86.5668 392.972 86.5012 393.301H73.3323V390.838H84.9248L83.8411 391.79C83.8411 390.739 83.655 389.852 83.2828 389.13C82.9106 388.386 82.3852 387.816 81.7065 387.422C81.0278 387.006 80.2068 386.798 79.2435 386.798C78.2364 386.798 77.3497 387.017 76.5835 387.455C75.8172 387.893 75.2261 388.506 74.8101 389.294C74.3941 390.082 74.1861 391.013 74.1861 392.086C74.1861 393.18 74.4051 394.144 74.8429 394.975C75.2808 395.786 75.9048 396.42 76.7148 396.88C77.5249 397.318 78.4553 397.537 79.5062 397.537C80.382 397.537 81.1811 397.384 81.9035 397.077C82.6479 396.771 83.2828 396.311 83.8083 395.698L85.713 397.636C84.9686 398.511 84.0491 399.179 82.9544 399.639C81.8817 400.099 80.7322 400.328 79.5062 400.328ZM89.888 400V376.552H92.8437V400H89.888ZM97.2009 400V384.401H100.156V400H97.2009ZM98.6787 381.281C98.1313 381.281 97.6825 381.106 97.3322 380.756C96.9819 380.384 96.8068 379.924 96.8068 379.376C96.8068 378.851 96.9819 378.413 97.3322 378.063C97.6825 377.691 98.1313 377.505 98.6787 377.505C99.226 377.505 99.6748 377.691 100.025 378.063C100.375 378.413 100.551 378.851 100.551 379.376C100.551 379.924 100.375 380.384 100.025 380.756C99.6748 381.106 99.226 381.281 98.6787 381.281ZM109.865 400L102.706 384.401H105.99L111.737 397.57H109.832L115.612 384.401H118.765L111.606 400H109.865ZM127.9 400.328C126.346 400.328 124.945 399.978 123.697 399.278C122.449 398.555 121.464 397.581 120.741 396.355C120.019 395.129 119.658 393.738 119.658 392.184C119.658 390.652 120.008 389.272 120.708 388.046C121.431 386.82 122.394 385.857 123.598 385.156C124.824 384.434 126.193 384.073 127.703 384.073C129.148 384.073 130.418 384.401 131.513 385.058C132.629 385.715 133.494 386.623 134.107 387.783C134.742 388.944 135.06 390.257 135.06 391.724C135.06 391.943 135.049 392.184 135.027 392.447C135.005 392.688 134.961 392.972 134.895 393.301H121.727V390.838H133.319L132.235 391.79C132.235 390.739 132.049 389.852 131.677 389.13C131.305 388.386 130.779 387.816 130.101 387.422C129.422 387.006 128.601 386.798 127.638 386.798C126.631 386.798 125.744 387.017 124.978 387.455C124.211 387.893 123.62 388.506 123.204 389.294C122.788 390.082 122.58 391.013 122.58 392.086C122.58 393.18 122.799 394.144 123.237 394.975C123.675 395.786 124.299 396.42 125.109 396.88C125.919 397.318 126.85 397.537 127.9 397.537C128.776 397.537 129.575 397.384 130.298 397.077C131.042 396.771 131.677 396.311 132.202 395.698L134.107 397.636C133.363 398.511 132.443 399.179 131.349 399.639C130.276 400.099 129.126 400.328 127.9 400.328ZM138.282 400V384.401H141.238V400H138.282ZM141.238 391.1L140.121 390.608C140.121 388.615 140.581 387.028 141.501 385.846C142.42 384.664 143.745 384.073 145.474 384.073C146.262 384.073 146.974 384.215 147.609 384.499C148.244 384.762 148.835 385.211 149.382 385.846L147.445 387.849C147.116 387.499 146.755 387.247 146.361 387.094C145.967 386.941 145.507 386.864 144.982 386.864C143.887 386.864 142.989 387.214 142.289 387.915C141.588 388.615 141.238 389.677 141.238 391.1ZM151.496 400V384.401H154.452V400H151.496ZM152.974 381.281C152.427 381.281 151.978 381.106 151.627 380.756C151.277 380.384 151.102 379.924 151.102 379.376C151.102 378.851 151.277 378.413 151.627 378.063C151.978 377.691 152.427 377.505 152.974 377.505C153.521 377.505 153.97 377.691 154.32 378.063C154.671 378.413 154.846 378.851 154.846 379.376C154.846 379.924 154.671 380.384 154.32 380.756C153.97 381.106 153.521 381.281 152.974 381.281ZM166.032 400.328C164.478 400.328 163.077 399.978 161.829 399.278C160.581 398.555 159.595 397.581 158.873 396.355C158.151 395.129 157.789 393.738 157.789 392.184C157.789 390.652 158.14 389.272 158.84 388.046C159.563 386.82 160.526 385.857 161.73 385.156C162.956 384.434 164.324 384.073 165.835 384.073C167.28 384.073 168.55 384.401 169.645 385.058C170.761 385.715 171.626 386.623 172.239 387.783C172.874 388.944 173.191 390.257 173.191 391.724C173.191 391.943 173.18 392.184 173.158 392.447C173.137 392.688 173.093 392.972 173.027 393.301H159.858V390.838H171.451L170.367 391.79C170.367 390.739 170.181 389.852 169.809 389.13C169.437 388.386 168.911 387.816 168.232 387.422C167.554 387.006 166.733 386.798 165.769 386.798C164.762 386.798 163.876 387.017 163.109 387.455C162.343 387.893 161.752 388.506 161.336 389.294C160.92 390.082 160.712 391.013 160.712 392.086C160.712 393.18 160.931 394.144 161.369 394.975C161.807 395.786 162.431 396.42 163.241 396.88C164.051 397.318 164.981 397.537 166.032 397.537C166.908 397.537 167.707 397.384 168.429 397.077C169.174 396.771 169.809 396.311 170.334 395.698L172.239 397.636C171.495 398.511 170.575 399.179 169.48 399.639C168.408 400.099 167.258 400.328 166.032 400.328ZM181.373 400.328C180.497 400.328 179.665 400.219 178.877 400C178.111 399.759 177.399 399.431 176.742 399.015C176.086 398.577 175.516 398.062 175.035 397.471L176.939 395.567C177.509 396.267 178.165 396.793 178.91 397.143C179.654 397.471 180.486 397.636 181.406 397.636C182.325 397.636 183.037 397.482 183.54 397.176C184.044 396.847 184.296 396.399 184.296 395.829C184.296 395.26 184.088 394.822 183.672 394.516C183.278 394.187 182.763 393.925 182.128 393.728C181.493 393.509 180.815 393.301 180.092 393.104C179.391 392.885 178.724 392.611 178.089 392.283C177.454 391.954 176.928 391.505 176.512 390.936C176.118 390.367 175.921 389.612 175.921 388.67C175.921 387.729 176.151 386.919 176.611 386.24C177.071 385.539 177.706 385.003 178.516 384.631C179.348 384.259 180.344 384.073 181.504 384.073C182.73 384.073 183.814 384.291 184.755 384.729C185.719 385.145 186.507 385.78 187.12 386.634L185.215 388.539C184.777 387.97 184.23 387.532 183.573 387.225C182.938 386.919 182.216 386.765 181.406 386.765C180.552 386.765 179.895 386.919 179.435 387.225C178.997 387.51 178.778 387.915 178.778 388.44C178.778 388.966 178.976 389.371 179.37 389.655C179.764 389.94 180.278 390.181 180.913 390.378C181.57 390.575 182.249 390.783 182.949 391.002C183.65 391.199 184.317 391.473 184.952 391.823C185.587 392.173 186.102 392.644 186.496 393.235C186.912 393.826 187.12 394.603 187.12 395.567C187.12 397.033 186.594 398.194 185.544 399.048C184.515 399.901 183.124 400.328 181.373 400.328ZM199.657 400V377.866H202.613V400H199.657ZM195.815 387.094V384.401H206.455V387.094H195.815ZM215.996 400.328C214.463 400.328 213.084 399.967 211.858 399.245C210.632 398.522 209.657 397.548 208.935 396.322C208.212 395.074 207.851 393.684 207.851 392.151C207.851 390.641 208.212 389.283 208.935 388.079C209.657 386.853 210.632 385.879 211.858 385.156C213.084 384.434 214.463 384.073 215.996 384.073C217.506 384.073 218.874 384.434 220.101 385.156C221.348 385.857 222.334 386.82 223.056 388.046C223.779 389.272 224.14 390.641 224.14 392.151C224.14 393.684 223.779 395.074 223.056 396.322C222.334 397.548 221.348 398.522 220.101 399.245C218.874 399.967 217.506 400.328 215.996 400.328ZM215.996 397.471C216.981 397.471 217.856 397.241 218.623 396.782C219.389 396.322 219.991 395.698 220.429 394.91C220.867 394.1 221.086 393.18 221.086 392.151C221.086 391.144 220.856 390.246 220.396 389.458C219.958 388.67 219.356 388.057 218.59 387.619C217.846 387.16 216.981 386.93 215.996 386.93C215.01 386.93 214.135 387.16 213.368 387.619C212.602 388.057 212 388.67 211.562 389.458C211.124 390.246 210.905 391.144 210.905 392.151C210.905 393.18 211.124 394.1 211.562 394.91C212 395.698 212.602 396.322 213.368 396.782C214.135 397.241 215.01 397.471 215.996 397.471ZM241.165 400.328C239.369 400.328 237.837 400 236.567 399.343C235.297 398.686 234.17 397.734 233.184 396.486L235.286 394.384C236.009 395.391 236.841 396.158 237.782 396.683C238.724 397.187 239.884 397.438 241.263 397.438C242.621 397.438 243.704 397.143 244.514 396.552C245.346 395.961 245.762 395.151 245.762 394.122C245.762 393.268 245.565 392.578 245.171 392.053C244.777 391.527 244.241 391.1 243.562 390.772C242.905 390.422 242.183 390.115 241.394 389.852C240.606 389.568 239.818 389.272 239.03 388.966C238.242 388.637 237.519 388.243 236.863 387.783C236.206 387.302 235.669 386.678 235.253 385.912C234.859 385.145 234.662 384.182 234.662 383.022C234.662 381.73 234.969 380.635 235.582 379.738C236.217 378.818 237.071 378.118 238.143 377.636C239.238 377.132 240.464 376.881 241.821 376.881C243.31 376.881 244.646 377.176 245.828 377.767C247.01 378.336 247.973 379.092 248.718 380.033L246.616 382.135C245.937 381.347 245.204 380.756 244.416 380.362C243.65 379.968 242.763 379.771 241.756 379.771C240.53 379.771 239.555 380.044 238.833 380.592C238.11 381.117 237.749 381.861 237.749 382.825C237.749 383.591 237.946 384.215 238.34 384.697C238.756 385.156 239.293 385.55 239.95 385.879C240.606 386.207 241.329 386.514 242.117 386.798C242.927 387.061 243.726 387.357 244.514 387.685C245.302 388.013 246.025 388.429 246.682 388.933C247.339 389.436 247.864 390.093 248.258 390.903C248.674 391.691 248.882 392.688 248.882 393.892C248.882 395.906 248.181 397.482 246.78 398.621C245.401 399.759 243.529 400.328 241.165 400.328ZM250.63 400L259.957 377.209H262.19L271.483 400H268.134L260.482 380.723H261.631L253.914 400H250.63ZM255.063 394.844V392.151H267.05V394.844H255.063ZM276.983 391.133V388.44H283.19C284.044 388.44 284.799 388.265 285.456 387.915C286.135 387.565 286.66 387.072 287.032 386.437C287.427 385.802 287.624 385.047 287.624 384.171C287.624 383.295 287.427 382.54 287.032 381.905C286.66 381.27 286.135 380.778 285.456 380.427C284.799 380.077 284.044 379.902 283.19 379.902H276.983V377.209H283.387C284.788 377.209 286.036 377.494 287.131 378.063C288.248 378.632 289.123 379.442 289.758 380.493C290.415 381.522 290.743 382.748 290.743 384.171C290.743 385.572 290.415 386.798 289.758 387.849C289.123 388.878 288.248 389.688 287.131 390.279C286.036 390.849 284.788 391.133 283.387 391.133H276.983ZM274.914 400V377.209H278.001V400H274.914ZM305.911 400L298.752 384.401H302.036L307.783 397.57H305.879L311.658 384.401H314.811L307.652 400H305.911ZM317.364 400V384.401H320.32V400H317.364ZM318.842 381.281C318.295 381.281 317.846 381.106 317.495 380.756C317.145 380.384 316.97 379.924 316.97 379.376C316.97 378.851 317.145 378.413 317.495 378.063C317.846 377.691 318.295 377.505 318.842 377.505C319.389 377.505 319.838 377.691 320.188 378.063C320.539 378.413 320.714 378.851 320.714 379.376C320.714 379.924 320.539 380.384 320.188 380.756C319.838 381.106 319.389 381.281 318.842 381.281ZM331.309 400.328C329.886 400.328 328.594 399.978 327.434 399.278C326.274 398.555 325.354 397.581 324.675 396.355C324.019 395.129 323.69 393.749 323.69 392.217C323.69 390.684 324.019 389.305 324.675 388.079C325.354 386.853 326.263 385.879 327.401 385.156C328.561 384.434 329.864 384.073 331.309 384.073C332.491 384.073 333.542 384.324 334.462 384.828C335.403 385.31 336.158 385.988 336.728 386.864C337.297 387.718 337.614 388.714 337.68 389.852V394.549C337.614 395.665 337.297 396.661 336.728 397.537C336.18 398.413 335.436 399.102 334.495 399.606C333.575 400.088 332.513 400.328 331.309 400.328ZM331.802 397.537C333.269 397.537 334.451 397.044 335.348 396.059C336.246 395.052 336.695 393.771 336.695 392.217C336.695 391.144 336.487 390.214 336.071 389.425C335.677 388.615 335.108 387.991 334.363 387.554C333.619 387.094 332.754 386.864 331.769 386.864C330.784 386.864 329.908 387.094 329.142 387.554C328.397 388.013 327.806 388.648 327.368 389.458C326.952 390.246 326.744 391.155 326.744 392.184C326.744 393.235 326.952 394.165 327.368 394.975C327.806 395.764 328.408 396.388 329.175 396.847C329.941 397.307 330.817 397.537 331.802 397.537ZM336.498 400V395.796L337.056 391.987L336.498 388.21V384.401H339.486V400H336.498ZM351.146 400V377.209H353.313L362.968 393.071H361.49L371.145 377.209H373.313V400H370.226V382.628L370.948 382.825L363.329 395.337H361.162L353.543 382.825L354.233 382.628V400H351.146ZM378.202 400V384.401H381.157V400H378.202ZM379.679 381.281C379.132 381.281 378.683 381.106 378.333 380.756C377.983 380.384 377.808 379.924 377.808 379.376C377.808 378.851 377.983 378.413 378.333 378.063C378.683 377.691 379.132 377.505 379.679 377.505C380.227 377.505 380.676 377.691 381.026 378.063C381.376 378.413 381.551 378.851 381.551 379.376C381.551 379.924 381.376 380.384 381.026 380.756C380.676 381.106 380.227 381.281 379.679 381.281ZM390.472 400.328C389.596 400.328 388.764 400.219 387.976 400C387.21 399.759 386.498 399.431 385.841 399.015C385.185 398.577 384.615 398.062 384.134 397.471L386.038 395.567C386.608 396.267 387.264 396.793 388.009 397.143C388.753 397.471 389.585 397.636 390.505 397.636C391.424 397.636 392.136 397.482 392.639 397.176C393.143 396.847 393.395 396.399 393.395 395.829C393.395 395.26 393.187 394.822 392.771 394.516C392.377 394.187 391.862 393.925 391.227 393.728C390.592 393.509 389.914 393.301 389.191 393.104C388.49 392.885 387.823 392.611 387.188 392.283C386.553 391.954 386.027 391.505 385.611 390.936C385.217 390.367 385.02 389.612 385.02 388.67C385.02 387.729 385.25 386.919 385.71 386.24C386.17 385.539 386.805 385.003 387.615 384.631C388.447 384.259 389.443 384.073 390.603 384.073C391.829 384.073 392.913 384.291 393.854 384.729C394.818 385.145 395.606 385.78 396.219 386.634L394.314 388.539C393.876 387.97 393.329 387.532 392.672 387.225C392.037 386.919 391.315 386.765 390.505 386.765C389.651 386.765 388.994 386.919 388.534 387.225C388.096 387.51 387.877 387.915 387.877 388.44C387.877 388.966 388.074 389.371 388.469 389.655C388.863 389.94 389.377 390.181 390.012 390.378C390.669 390.575 391.348 390.783 392.048 391.002C392.749 391.199 393.416 391.473 394.051 391.823C394.686 392.173 395.201 392.644 395.595 393.235C396.011 393.826 396.219 394.603 396.219 395.567C396.219 397.033 395.693 398.194 394.642 399.048C393.613 399.901 392.223 400.328 390.472 400.328ZM401.925 400V377.866H404.881V400H401.925ZM398.083 387.094V384.401H408.723V387.094H398.083ZM411.618 400V384.401H414.574V400H411.618ZM414.574 391.1L413.457 390.608C413.457 388.615 413.917 387.028 414.837 385.846C415.756 384.664 417.081 384.073 418.81 384.073C419.598 384.073 420.31 384.215 420.945 384.499C421.58 384.762 422.171 385.211 422.718 385.846L420.781 387.849C420.452 387.499 420.091 387.247 419.697 387.094C419.303 386.941 418.843 386.864 418.318 386.864C417.223 386.864 416.325 387.214 415.625 387.915C414.924 388.615 414.574 389.677 414.574 391.1ZM430.92 400.328C429.497 400.328 428.205 399.978 427.045 399.278C425.884 398.555 424.965 397.581 424.286 396.355C423.629 395.129 423.301 393.749 423.301 392.217C423.301 390.684 423.629 389.305 424.286 388.079C424.965 386.853 425.873 385.879 427.012 385.156C428.172 384.434 429.475 384.073 430.92 384.073C432.102 384.073 433.153 384.324 434.072 384.828C435.014 385.31 435.769 385.988 436.338 386.864C436.908 387.718 437.225 388.714 437.291 389.852V394.549C437.225 395.665 436.908 396.661 436.338 397.537C435.791 398.413 435.047 399.102 434.105 399.606C433.186 400.088 432.124 400.328 430.92 400.328ZM431.412 397.537C432.879 397.537 434.061 397.044 434.959 396.059C435.857 395.052 436.306 393.771 436.306 392.217C436.306 391.144 436.098 390.214 435.682 389.425C435.287 388.615 434.718 387.991 433.974 387.554C433.23 387.094 432.365 386.864 431.38 386.864C430.394 386.864 429.519 387.094 428.752 387.554C428.008 388.013 427.417 388.648 426.979 389.458C426.563 390.246 426.355 391.155 426.355 392.184C426.355 393.235 426.563 394.165 426.979 394.975C427.417 395.764 428.019 396.388 428.785 396.847C429.551 397.307 430.427 397.537 431.412 397.537ZM436.108 400V395.796L436.667 391.987L436.108 388.21V384.401H439.097V400H436.108ZM443.4 400V376.552H446.356V400H443.4ZM455.432 400L464.758 377.209H466.991L476.285 400H472.935L465.284 380.723H466.433L458.716 400H455.432ZM459.865 394.844V392.151H471.852V394.844H459.865ZM479.716 400V377.209H482.803V400H479.716ZM531.237 400.328C530.624 400.328 530.11 400.12 529.694 399.704C529.3 399.267 529.103 398.752 529.103 398.161C529.103 397.548 529.3 397.044 529.694 396.65C530.11 396.234 530.624 396.026 531.237 396.026C531.851 396.026 532.354 396.234 532.748 396.65C533.164 397.044 533.372 397.548 533.372 398.161C533.372 398.752 533.164 399.267 532.748 399.704C532.354 400.12 531.851 400.328 531.237 400.328Z" fill="white"/>
<g clip-path="url(#clip1_754_156)">
<path fill-rule="evenodd" clip-rule="evenodd" d="M51.0005 193.779H167.24L281 80H51.0005V193.779Z" fill="url(#paint1_linear_754_156)"/>
<path fill-rule="evenodd" clip-rule="evenodd" d="M187.494 101.393L164.854 101.38V155.211L145.077 101.38H125.467L108.58 146.398C106.782 135.047 95.0397 131.127 85.8018 128.188C79.7019 126.23 73.2299 123.348 73.2896 120.164C73.3403 117.55 76.7615 115.122 83.5391 115.488C88.0958 115.729 92.1132 116.097 100.11 119.953L107.975 106.256C100.675 102.543 90.5906 100.195 82.3271 100.187H82.2792C72.6431 100.187 64.6117 103.309 59.6339 108.454C56.1642 112.048 54.2952 116.612 54.2171 121.661C54.0905 128.607 56.6383 133.536 61.9909 137.466C66.5108 140.781 72.2912 142.929 77.3861 144.508C83.6718 146.456 88.8014 148.148 88.7417 151.76C88.6954 153.073 88.1968 154.299 87.252 155.294C85.6864 156.91 83.2786 157.518 79.9545 157.58C73.5422 157.716 68.7853 156.71 61.2089 152.234L54.2171 166.123C61.7723 170.421 70.7184 172.941 79.8463 172.941L81.0209 172.927C88.967 172.784 95.3799 170.52 100.502 166.395C100.796 166.163 101.06 165.924 101.332 165.683L99.0604 171.748H119.627L123.079 161.25C126.691 162.485 130.802 163.167 135.168 163.167C139.417 163.167 143.42 162.514 146.968 161.353L150.295 171.748H183.835V150.013H191.149C208.833 150.013 219.29 141.007 219.29 125.918C219.29 109.108 209.129 101.395 187.493 101.395L187.494 101.393ZM135.169 147.455C132.527 147.455 130.051 146.994 127.916 146.187L135.091 123.546H135.227L142.279 146.251C140.159 147.003 137.74 147.455 135.17 147.455H135.169ZM188.823 134.447H183.837V116.203H188.823C195.475 116.203 200.78 118.412 200.78 125.204C200.78 132.232 195.475 134.447 188.823 134.447Z" fill="white"/>
</g>
<path d="M500.963 377.271H496.272V381.963H500.963V377.271Z" fill="#FFAF01"/>
<path d="M519.729 377.271H515.037V381.963H519.729V377.271Z" fill="#FFAF01"/>
<path d="M510.346 391.346H505.655V396.037H510.346V391.346Z" fill="#E61300"/>
<path d="M500.963 391.346H496.272V396.037H500.963V391.346Z" fill="#E61300"/>
<path d="M519.729 391.346H515.037V396.037H519.729V391.346Z" fill="#E61300"/>
<path d="M505.654 381.963H496.272V386.654H505.654V381.963Z" fill="#FF8204"/>
<path d="M505.654 396.037H491.58V400.728H505.654V396.037Z" fill="#C4001D"/>
<path d="M524.42 396.037H510.345V400.728H524.42V396.037Z" fill="#C4001D"/>
<path d="M519.729 386.654H496.272V391.346H519.729V386.654Z" fill="#FA500F"/>
<path d="M519.728 381.963H510.345V386.654H519.728V381.963Z" fill="#FF8204"/>
</g>
<defs>
<linearGradient id="paint0_linear_754_156" x1="-195.5" y1="-153.524" x2="1617.79" y2="833.221" gradientUnits="userSpaceOnUse">
<stop stop-color="#1E51CA"/>
<stop offset="0.59413" stop-color="#0F2864"/>
</linearGradient>
<linearGradient id="paint1_linear_754_156" x1="166" y1="80" x2="166" y2="193.779" gradientUnits="userSpaceOnUse">
<stop stop-color="#00B1EB"/>
<stop offset="0.212" stop-color="#009AD9"/>
<stop offset="0.519" stop-color="#007FC4"/>
<stop offset="0.792" stop-color="#006EB8"/>
<stop offset="1" stop-color="#0069B4"/>
</linearGradient>
<clipPath id="clip0_754_156">
<rect width="1810" height="480" fill="white"/>
</clipPath>
<clipPath id="clip1_754_156">
<rect width="230" height="113.779" fill="white" transform="translate(51 80)"/>
</clipPath>
</defs>
</svg>
