<svg width="1810" height="480" viewBox="0 0 1810 480" fill="none" xmlns="http://www.w3.org/2000/svg">
<g clip-path="url(#clip0_754_156)">
<rect width="1810" height="480" fill="url(#paint0_linear_754_156)"/>
<rect x="1533" width="277" height="211.048" fill="#3B82F6" fill-opacity="0.14"/>
<rect x="1576" y="317.714" width="191" height="145.524" fill="#3B82F6" fill-opacity="0.14"/>
<rect x="1285" y="263.619" width="206" height="156.952" fill="#3B82F6" fill-opacity="0.14"/>
<rect x="1013" y="317.714" width="150" height="114.286" fill="#3B82F6" fill-opacity="0.14"/>
<rect x="956" y="101.333" width="155" height="118.095" fill="#3B82F6" fill-opacity="0.14"/>
<rect x="1202" y="35.0479" width="210" height="160" fill="#3B82F6" fill-opacity="0.14"/>
<path d="M295.73 174.166C289.277 174.166 283.795 173 279.286 170.668C274.777 168.335 270.734 164.914 267.157 160.405L276.254 151.308C278.508 154.574 281.191 157.139 284.301 159.005C287.411 160.794 291.376 161.688 296.196 161.688C300.706 161.688 304.282 160.755 306.925 158.889C309.647 157.023 311.007 154.457 311.007 151.192C311.007 148.47 310.307 146.255 308.908 144.544C307.508 142.834 305.643 141.434 303.31 140.346C301.055 139.18 298.529 138.169 295.73 137.314C293.008 136.381 290.248 135.37 287.449 134.281C284.728 133.115 282.201 131.677 279.869 129.966C277.614 128.256 275.787 126.04 274.388 123.319C272.988 120.598 272.289 117.138 272.289 112.94C272.289 108.119 273.455 104.037 275.787 100.694C278.197 97.2733 281.424 94.6687 285.467 92.8805C289.51 91.0923 294.019 90.1982 298.995 90.1982C304.36 90.1982 309.141 91.2478 313.34 93.347C317.616 95.4462 321.076 98.1285 323.719 101.394L314.622 110.49C312.29 107.847 309.841 105.903 307.275 104.659C304.787 103.338 301.911 102.677 298.645 102.677C294.602 102.677 291.415 103.493 289.082 105.126C286.827 106.759 285.7 109.052 285.7 112.007C285.7 114.495 286.4 116.516 287.799 118.071C289.199 119.548 291.026 120.831 293.281 121.919C295.613 122.93 298.14 123.902 300.861 124.835C303.66 125.768 306.42 126.818 309.141 127.984C311.94 129.15 314.467 130.666 316.722 132.532C319.054 134.32 320.92 136.653 322.32 139.529C323.719 142.406 324.419 146.021 324.419 150.375C324.419 157.684 321.814 163.476 316.605 167.752C311.474 172.028 304.515 174.166 295.73 174.166ZM361.015 174.166C355.573 174.166 350.636 172.883 346.204 170.318C341.773 167.674 338.235 164.137 335.592 159.705C333.026 155.273 331.743 150.336 331.743 144.894C331.743 139.452 333.026 134.554 335.592 130.2C338.235 125.846 341.773 122.386 346.204 119.82C350.636 117.177 355.573 115.855 361.015 115.855C366.535 115.855 371.511 117.138 375.943 119.704C380.375 122.269 383.873 125.768 386.439 130.2C389.082 134.554 390.404 139.452 390.404 144.894C390.404 150.336 389.082 155.273 386.439 159.705C383.873 164.137 380.375 167.674 375.943 170.318C371.511 172.883 366.535 174.166 361.015 174.166ZM361.015 161.804C364.203 161.804 367.002 161.105 369.412 159.705C371.9 158.228 373.805 156.206 375.127 153.641C376.526 151.075 377.226 148.159 377.226 144.894C377.226 141.629 376.526 138.752 375.127 136.264C373.727 133.776 371.822 131.832 369.412 130.433C367.002 128.956 364.203 128.217 361.015 128.217C357.905 128.217 355.106 128.956 352.618 130.433C350.208 131.832 348.303 133.776 346.904 136.264C345.582 138.752 344.921 141.629 344.921 144.894C344.921 148.159 345.582 151.075 346.904 153.641C348.303 156.206 350.208 158.228 352.618 159.705C355.106 161.105 357.905 161.804 361.015 161.804ZM401.072 173V89.032H413.901V173H401.072ZM451.152 174.166C446.41 174.166 442.173 173.117 438.441 171.017C434.786 168.918 431.91 166.042 429.811 162.387C427.789 158.655 426.778 154.379 426.778 149.559V117.021H439.607V148.976C439.607 151.697 440.034 154.029 440.89 155.973C441.823 157.839 443.144 159.277 444.855 160.288C446.643 161.299 448.742 161.804 451.152 161.804C454.884 161.804 457.722 160.716 459.666 158.539C461.687 156.284 462.698 153.096 462.698 148.976V117.021H475.526V149.559C475.526 154.457 474.477 158.772 472.378 162.504C470.356 166.158 467.518 169.035 463.864 171.134C460.21 173.155 455.973 174.166 451.152 174.166ZM496.939 173V93.6969H509.767V173H496.939ZM483.527 128.684V117.021H523.179V128.684H483.527ZM532.617 173V117.021H545.445V173H532.617ZM539.031 106.759C536.854 106.759 535.027 106.02 533.55 104.543C532.15 103.066 531.45 101.238 531.45 99.0615C531.45 96.8846 532.15 95.0575 533.55 93.5803C535.027 92.103 536.854 91.3644 539.031 91.3644C541.286 91.3644 543.113 92.103 544.512 93.5803C545.912 95.0575 546.611 96.8846 546.611 99.0615C546.611 101.238 545.912 103.066 544.512 104.543C543.113 106.02 541.286 106.759 539.031 106.759ZM585.49 174.166C580.048 174.166 575.111 172.883 570.679 170.318C566.248 167.674 562.71 164.137 560.067 159.705C557.501 155.273 556.218 150.336 556.218 144.894C556.218 139.452 557.501 134.554 560.067 130.2C562.71 125.846 566.248 122.386 570.679 119.82C575.111 117.177 580.048 115.855 585.49 115.855C591.01 115.855 595.986 117.138 600.418 119.704C604.85 122.269 608.348 125.768 610.914 130.2C613.557 134.554 614.879 139.452 614.879 144.894C614.879 150.336 613.557 155.273 610.914 159.705C608.348 164.137 604.85 167.674 600.418 170.318C595.986 172.883 591.01 174.166 585.49 174.166ZM585.49 161.804C588.678 161.804 591.477 161.105 593.887 159.705C596.375 158.228 598.28 156.206 599.602 153.641C601.001 151.075 601.701 148.159 601.701 144.894C601.701 141.629 601.001 138.752 599.602 136.264C598.202 133.776 596.297 131.832 593.887 130.433C591.477 128.956 588.678 128.217 585.49 128.217C582.38 128.217 579.581 128.956 577.093 130.433C574.683 131.832 572.778 133.776 571.379 136.264C570.057 138.752 569.396 141.629 569.396 144.894C569.396 148.159 570.057 151.075 571.379 153.641C572.778 156.206 574.683 158.228 577.093 159.705C579.581 161.105 582.38 161.804 585.49 161.804ZM663.916 173V140.696C663.916 136.964 662.711 133.893 660.301 131.482C657.968 129.072 654.936 127.867 651.204 127.867C648.716 127.867 646.5 128.411 644.557 129.5C642.613 130.588 641.097 132.104 640.008 134.048C638.92 135.992 638.376 138.208 638.376 140.696L633.361 137.897C633.361 133.621 634.294 129.85 636.16 126.584C638.026 123.241 640.592 120.637 643.857 118.771C647.2 116.827 650.932 115.855 655.053 115.855C659.251 115.855 662.983 116.944 666.248 119.121C669.514 121.22 672.08 123.98 673.946 127.401C675.811 130.744 676.744 134.243 676.744 137.897V173H663.916ZM625.547 173V117.021H638.376V173H625.547ZM708.09 174.166C704.98 174.166 701.987 173.777 699.11 173C696.234 172.145 693.59 170.979 691.18 169.501C688.77 167.946 686.671 166.08 684.883 163.903L693.046 155.74C694.99 157.995 697.206 159.705 699.694 160.871C702.259 161.96 705.136 162.504 708.324 162.504C711.2 162.504 713.377 162.076 714.854 161.221C716.332 160.366 717.07 159.122 717.07 157.489C717.07 155.779 716.371 154.457 714.971 153.524C713.572 152.591 711.744 151.814 709.49 151.192C707.313 150.492 704.98 149.792 702.492 149.092C700.082 148.393 697.75 147.46 695.495 146.294C693.318 145.05 691.53 143.378 690.131 141.279C688.731 139.18 688.031 136.458 688.031 133.115C688.031 129.539 688.848 126.468 690.48 123.902C692.191 121.336 694.562 119.354 697.594 117.954C700.704 116.555 704.397 115.855 708.673 115.855C713.183 115.855 717.148 116.671 720.569 118.304C724.068 119.859 726.983 122.23 729.316 125.418L721.152 133.582C719.519 131.56 717.653 130.044 715.554 129.033C713.455 128.023 711.045 127.517 708.324 127.517C705.758 127.517 703.775 127.906 702.376 128.684C700.976 129.461 700.277 130.588 700.277 132.066C700.277 133.621 700.976 134.826 702.376 135.681C703.775 136.536 705.564 137.275 707.74 137.897C709.995 138.519 712.328 139.218 714.738 139.996C717.226 140.696 719.558 141.706 721.735 143.028C723.99 144.272 725.817 145.983 727.216 148.159C728.616 150.259 729.316 153.019 729.316 156.44C729.316 161.882 727.411 166.197 723.601 169.385C719.791 172.572 714.621 174.166 708.09 174.166ZM739.892 186.645L747.822 171.834L752.137 170.668C751.671 171.601 751.126 172.378 750.504 173C749.882 173.622 749.144 173.933 748.289 173.933C746.5 173.933 744.829 173.194 743.274 171.717C741.797 170.162 741.058 168.218 741.058 165.886C741.058 163.398 741.874 161.299 743.507 159.588C745.217 157.8 747.317 156.906 749.805 156.906C752.137 156.906 754.159 157.8 755.869 159.588C757.657 161.299 758.551 163.398 758.551 165.886C758.551 166.897 758.318 168.102 757.852 169.501C757.463 170.823 756.724 172.534 755.636 174.633L747.006 190.493L739.892 186.645ZM806.432 142.212V130.55H826.841C829.64 130.55 832.089 130.005 834.188 128.917C836.365 127.751 838.076 126.157 839.32 124.135C840.563 122.036 841.185 119.587 841.185 116.788C841.185 113.989 840.563 111.579 839.32 109.558C838.076 107.458 836.365 105.864 834.188 104.776C832.089 103.61 829.64 103.027 826.841 103.027H806.432V91.3644H827.541C832.672 91.3644 837.259 92.414 841.302 94.5132C845.423 96.6124 848.649 99.5669 850.982 103.377C853.392 107.186 854.597 111.657 854.597 116.788C854.597 121.919 853.392 126.39 850.982 130.2C848.649 134.009 845.423 136.964 841.302 139.063C837.259 141.162 832.672 142.212 827.541 142.212H806.432ZM797.219 173V91.3644H810.63V173H797.219ZM888.663 174.166C883.22 174.166 878.283 172.883 873.851 170.318C869.42 167.674 865.882 164.137 863.239 159.705C860.673 155.273 859.39 150.336 859.39 144.894C859.39 139.452 860.673 134.554 863.239 130.2C865.882 125.846 869.42 122.386 873.851 119.82C878.283 117.177 883.22 115.855 888.663 115.855C894.183 115.855 899.159 117.138 903.59 119.704C908.022 122.269 911.52 125.768 914.086 130.2C916.73 134.554 918.051 139.452 918.051 144.894C918.051 150.336 916.73 155.273 914.086 159.705C911.52 164.137 908.022 167.674 903.59 170.318C899.159 172.883 894.183 174.166 888.663 174.166ZM888.663 161.804C891.85 161.804 894.649 161.105 897.059 159.705C899.547 158.228 901.452 156.206 902.774 153.641C904.173 151.075 904.873 148.159 904.873 144.894C904.873 141.629 904.173 138.752 902.774 136.264C901.374 133.776 899.47 131.832 897.059 130.433C894.649 128.956 891.85 128.217 888.663 128.217C885.553 128.217 882.754 128.956 880.266 130.433C877.856 131.832 875.951 133.776 874.551 136.264C873.23 138.752 872.569 141.629 872.569 144.894C872.569 148.159 873.23 151.075 874.551 153.641C875.951 156.206 877.856 158.228 880.266 159.705C882.754 161.105 885.553 161.804 888.663 161.804ZM943.68 173L921.172 117.021H934.467L949.628 157.722L945.663 157.839L960.474 117.021H967.937L982.748 157.839L978.783 157.722L993.944 117.021H1007.24L984.731 173H977.267L962.106 134.281H966.305L951.144 173H943.68ZM1039.92 174.166C1034.32 174.166 1029.26 172.922 1024.75 170.434C1020.32 167.869 1016.79 164.37 1014.14 159.938C1011.58 155.507 1010.29 150.531 1010.29 145.011C1010.29 139.491 1011.58 134.554 1014.14 130.2C1016.71 125.768 1020.17 122.269 1024.52 119.704C1028.95 117.138 1033.85 115.855 1039.22 115.855C1044.42 115.855 1049.01 117.06 1052.98 119.47C1057.02 121.881 1060.17 125.185 1062.42 129.383C1064.76 133.582 1065.92 138.363 1065.92 143.728C1065.92 144.661 1065.84 145.633 1065.69 146.643C1065.61 147.576 1065.46 148.626 1065.22 149.792H1019.27V139.296H1058.57L1053.79 143.495C1053.64 140.074 1052.98 137.197 1051.81 134.865C1050.64 132.532 1048.97 130.744 1046.8 129.5C1044.7 128.256 1042.09 127.634 1038.98 127.634C1035.72 127.634 1032.88 128.334 1030.47 129.733C1028.06 131.133 1026.19 133.115 1024.87 135.681C1023.55 138.169 1022.89 141.162 1022.89 144.661C1022.89 148.159 1023.59 151.231 1024.99 153.874C1026.39 156.517 1028.37 158.578 1030.94 160.055C1033.5 161.454 1036.46 162.154 1039.8 162.154C1042.68 162.154 1045.32 161.649 1047.73 160.638C1050.22 159.627 1052.32 158.15 1054.03 156.206L1062.19 164.487C1059.47 167.674 1056.16 170.084 1052.28 171.717C1048.39 173.35 1044.27 174.166 1039.92 174.166ZM1076.21 173V117.021H1089.03V173H1076.21ZM1089.03 141.862L1084.6 139.646C1084.6 132.571 1086.16 126.856 1089.27 122.503C1092.45 118.071 1097.24 115.855 1103.61 115.855C1106.41 115.855 1108.94 116.36 1111.19 117.371C1113.45 118.382 1115.55 120.015 1117.49 122.269L1109.09 130.899C1108.08 129.811 1106.96 129.033 1105.71 128.567C1104.47 128.1 1103.03 127.867 1101.4 127.867C1097.82 127.867 1094.87 128.995 1092.53 131.249C1090.2 133.504 1089.03 137.041 1089.03 141.862ZM1148 174.166C1142.4 174.166 1137.34 172.922 1132.83 170.434C1128.4 167.869 1124.87 164.37 1122.22 159.938C1119.66 155.507 1118.37 150.531 1118.37 145.011C1118.37 139.491 1119.66 134.554 1122.22 130.2C1124.79 125.768 1128.25 122.269 1132.6 119.704C1137.03 117.138 1141.93 115.855 1147.3 115.855C1152.51 115.855 1157.09 117.06 1161.06 119.47C1165.1 121.881 1168.25 125.185 1170.5 129.383C1172.84 133.582 1174 138.363 1174 143.728C1174 144.661 1173.92 145.633 1173.77 146.643C1173.69 147.576 1173.54 148.626 1173.3 149.792H1127.35V139.296H1166.66L1161.87 143.495C1161.72 140.074 1161.06 137.197 1159.89 134.865C1158.72 132.532 1157.05 130.744 1154.88 129.5C1152.78 128.256 1150.17 127.634 1147.06 127.634C1143.8 127.634 1140.96 128.334 1138.55 129.733C1136.14 131.133 1134.27 133.115 1132.95 135.681C1131.63 138.169 1130.97 141.162 1130.97 144.661C1130.97 148.159 1131.67 151.231 1133.07 153.874C1134.47 156.517 1136.45 158.578 1139.02 160.055C1141.58 161.454 1144.54 162.154 1147.88 162.154C1150.76 162.154 1153.4 161.649 1155.81 160.638C1158.3 159.627 1160.4 158.15 1162.11 156.206L1170.27 164.487C1167.55 167.674 1164.25 170.084 1160.36 171.717C1156.47 173.35 1152.35 174.166 1148 174.166ZM1207.73 174.166C1202.67 174.166 1198.09 172.883 1193.97 170.318C1189.92 167.752 1186.7 164.292 1184.29 159.938C1181.95 155.507 1180.79 150.57 1180.79 145.127C1180.79 139.607 1181.95 134.67 1184.29 130.316C1186.7 125.885 1189.92 122.386 1193.97 119.82C1198.09 117.177 1202.67 115.855 1207.73 115.855C1212 115.855 1215.77 116.788 1219.04 118.654C1222.38 120.442 1225.03 122.93 1226.97 126.118C1228.91 129.306 1229.89 132.921 1229.89 136.964V153.058C1229.89 157.101 1228.91 160.716 1226.97 163.903C1225.1 167.091 1222.5 169.618 1219.16 171.484C1215.81 173.272 1212 174.166 1207.73 174.166ZM1209.83 162.038C1213.01 162.038 1215.77 161.338 1218.11 159.938C1220.52 158.461 1222.38 156.44 1223.7 153.874C1225.03 151.308 1225.69 148.354 1225.69 145.011C1225.69 141.667 1225.03 138.713 1223.7 136.147C1222.38 133.582 1220.52 131.599 1218.11 130.2C1215.77 128.722 1213.01 127.984 1209.83 127.984C1206.72 127.984 1203.96 128.722 1201.55 130.2C1199.21 131.599 1197.35 133.582 1195.95 136.147C1194.63 138.713 1193.97 141.667 1193.97 145.011C1193.97 148.354 1194.63 151.308 1195.95 153.874C1197.35 156.44 1199.21 158.461 1201.55 159.938C1203.96 161.338 1206.72 162.038 1209.83 162.038ZM1237.7 173H1224.87V157.956L1227.09 144.311L1224.87 130.783V89.032H1237.7V173ZM1305.26 174.166C1300.98 174.166 1297.17 173.272 1293.83 171.484C1290.48 169.618 1287.84 167.091 1285.9 163.903C1284.03 160.716 1283.1 157.101 1283.1 153.058V136.964C1283.1 132.921 1284.07 129.306 1286.01 126.118C1287.96 122.93 1290.6 120.442 1293.94 118.654C1297.29 116.788 1301.06 115.855 1305.26 115.855C1310.31 115.855 1314.86 117.177 1318.9 119.82C1323.02 122.386 1326.25 125.885 1328.58 130.316C1330.99 134.67 1332.2 139.607 1332.2 145.127C1332.2 150.57 1330.99 155.507 1328.58 159.938C1326.25 164.292 1323.02 167.752 1318.9 170.318C1314.86 172.883 1310.31 174.166 1305.26 174.166ZM1275.28 173V89.032H1288.11V130.783L1285.9 144.311L1288.11 157.956V173H1275.28ZM1303.16 162.038C1306.27 162.038 1308.99 161.338 1311.32 159.938C1313.73 158.461 1315.6 156.44 1316.92 153.874C1318.32 151.308 1319.02 148.354 1319.02 145.011C1319.02 141.667 1318.32 138.713 1316.92 136.147C1315.6 133.582 1313.73 131.599 1311.32 130.2C1308.99 128.722 1306.27 127.984 1303.16 127.984C1300.05 127.984 1297.29 128.722 1294.88 130.2C1292.47 131.599 1290.6 133.582 1289.28 136.147C1287.96 138.713 1287.3 141.667 1287.3 145.011C1287.3 148.354 1287.96 151.308 1289.28 153.874C1290.6 156.44 1292.47 158.461 1294.88 159.938C1297.29 161.338 1300.05 162.038 1303.16 162.038ZM1359.07 173.583L1335.17 117.021H1349.28L1365.6 158.539H1361.52L1378.78 117.021H1393.01L1367 173.583H1359.07ZM1342.4 196.324L1359.77 160.521L1367 173.583L1356.62 196.324H1342.4ZM100.416 291.166C94.5845 291.166 89.1422 290.078 84.0885 287.901C79.0349 285.724 74.6033 282.731 70.7936 278.921C66.9839 275.033 63.9906 270.563 61.8137 265.509C59.7145 260.378 58.6649 254.897 58.6649 249.066C58.6649 243.234 59.7145 237.792 61.8137 232.738C63.9906 227.685 66.9451 223.253 70.677 219.444C74.4866 215.556 78.8794 212.563 83.8553 210.464C88.9089 208.287 94.3513 207.198 100.182 207.198C106.014 207.198 111.417 208.287 116.393 210.464C121.447 212.563 125.878 215.556 129.688 219.444C133.497 223.253 136.452 227.724 138.551 232.855C140.728 237.909 141.817 243.351 141.817 249.182C141.817 255.013 140.728 260.495 138.551 265.626C136.452 270.68 133.497 275.111 129.688 278.921C125.956 282.731 121.563 285.724 116.51 287.901C111.534 290.078 106.169 291.166 100.416 291.166ZM100.182 278.338C105.703 278.338 110.523 277.094 114.644 274.606C118.842 272.118 122.107 268.697 124.44 264.343C126.85 259.911 128.055 254.819 128.055 249.066C128.055 244.789 127.355 240.902 125.956 237.403C124.634 233.827 122.729 230.756 120.241 228.19C117.753 225.547 114.799 223.525 111.378 222.126C108.035 220.726 104.303 220.027 100.182 220.027C94.74 220.027 89.9196 221.271 85.7212 223.759C81.6006 226.169 78.3352 229.551 75.925 233.905C73.5925 238.259 72.4263 243.312 72.4263 249.066C72.4263 253.342 73.0872 257.307 74.4089 260.961C75.8084 264.537 77.7132 267.609 80.1234 270.174C82.6113 272.74 85.5657 274.761 88.9867 276.239C92.4076 277.638 96.1395 278.338 100.182 278.338ZM183.678 291.166C179.401 291.166 175.592 290.272 172.249 288.484C168.905 286.618 166.262 284.091 164.318 280.903C162.452 277.716 161.519 274.101 161.519 270.058V253.964C161.519 249.921 162.491 246.306 164.435 243.118C166.379 239.93 169.022 237.442 172.365 235.654C175.708 233.788 179.479 232.855 183.678 232.855C188.731 232.855 193.279 234.177 197.322 236.82C201.443 239.386 204.67 242.885 207.002 247.316C209.412 251.67 210.617 256.607 210.617 262.127C210.617 267.57 209.412 272.507 207.002 276.938C204.67 281.292 201.443 284.752 197.322 287.318C193.279 289.883 188.731 291.166 183.678 291.166ZM153.706 313.324V234.021H166.534V249.066L164.318 262.71L166.534 276.239V313.324H153.706ZM181.578 279.038C184.688 279.038 187.409 278.338 189.742 276.938C192.152 275.461 194.018 273.44 195.34 270.874C196.739 268.308 197.439 265.354 197.439 262.011C197.439 258.667 196.739 255.713 195.34 253.147C194.018 250.582 192.152 248.599 189.742 247.2C187.409 245.722 184.688 244.984 181.578 244.984C178.468 244.984 175.708 245.722 173.298 247.2C170.888 248.599 169.022 250.582 167.7 253.147C166.379 255.713 165.718 258.667 165.718 262.011C165.718 265.354 166.379 268.308 167.7 270.874C169.022 273.44 170.888 275.461 173.298 276.938C175.708 278.338 178.468 279.038 181.578 279.038ZM247.362 291.166C241.765 291.166 236.711 289.922 232.201 287.434C227.77 284.869 224.232 281.37 221.589 276.938C219.023 272.507 217.74 267.531 217.74 262.011C217.74 256.491 219.023 251.554 221.589 247.2C224.155 242.768 227.614 239.269 231.968 236.704C236.4 234.138 241.298 232.855 246.663 232.855C251.872 232.855 256.459 234.06 260.424 236.47C264.467 238.881 267.616 242.185 269.87 246.383C272.203 250.582 273.369 255.363 273.369 260.728C273.369 261.661 273.291 262.633 273.136 263.643C273.058 264.576 272.903 265.626 272.669 266.792H226.72V256.296H266.022L261.24 260.495C261.085 257.074 260.424 254.197 259.258 251.865C258.092 249.532 256.42 247.744 254.243 246.5C252.144 245.256 249.539 244.634 246.429 244.634C243.164 244.634 240.326 245.334 237.916 246.733C235.506 248.133 233.64 250.115 232.318 252.681C230.996 255.169 230.336 258.162 230.336 261.661C230.336 265.159 231.035 268.231 232.435 270.874C233.834 273.517 235.817 275.578 238.382 277.055C240.948 278.454 243.903 279.154 247.246 279.154C250.122 279.154 252.766 278.649 255.176 277.638C257.664 276.627 259.763 275.15 261.474 273.206L269.637 281.487C266.916 284.674 263.612 287.084 259.724 288.717C255.837 290.35 251.716 291.166 247.362 291.166ZM322.022 290V257.696C322.022 253.964 320.816 250.893 318.406 248.482C316.074 246.072 313.042 244.867 309.31 244.867C306.822 244.867 304.606 245.411 302.662 246.5C300.719 247.588 299.202 249.104 298.114 251.048C297.026 252.992 296.481 255.208 296.481 257.696L291.467 254.897C291.467 250.621 292.4 246.85 294.265 243.584C296.131 240.241 298.697 237.637 301.963 235.771C305.306 233.827 309.038 232.855 313.158 232.855C317.357 232.855 321.089 233.944 324.354 236.121C327.619 238.22 330.185 240.98 332.051 244.401C333.917 247.744 334.85 251.243 334.85 254.897V290H322.022ZM283.653 290V234.021H296.481V290H283.653ZM347.886 266.326V254.197H387.421V266.326H347.886ZM423.057 291.166C416.604 291.166 411.123 290 406.614 287.668C402.104 285.335 398.061 281.914 394.485 277.405L403.582 268.308C405.836 271.574 408.519 274.139 411.628 276.005C414.738 277.794 418.704 278.688 423.524 278.688C428.033 278.688 431.61 277.755 434.253 275.889C436.974 274.023 438.335 271.457 438.335 268.192C438.335 265.47 437.635 263.255 436.236 261.544C434.836 259.834 432.97 258.434 430.638 257.346C428.383 256.18 425.856 255.169 423.057 254.314C420.336 253.381 417.576 252.37 414.777 251.281C412.056 250.115 409.529 248.677 407.197 246.966C404.942 245.256 403.115 243.04 401.716 240.319C400.316 237.598 399.616 234.138 399.616 229.94C399.616 225.119 400.783 221.037 403.115 217.694C405.525 214.273 408.752 211.669 412.795 209.881C416.838 208.092 421.347 207.198 426.323 207.198C431.687 207.198 436.469 208.248 440.667 210.347C444.944 212.446 448.403 215.129 451.047 218.394L441.95 227.49C439.618 224.847 437.169 222.903 434.603 221.659C432.115 220.338 429.238 219.677 425.973 219.677C421.93 219.677 418.742 220.493 416.41 222.126C414.155 223.759 413.028 226.052 413.028 229.007C413.028 231.495 413.728 233.516 415.127 235.071C416.527 236.548 418.354 237.831 420.608 238.919C422.941 239.93 425.468 240.902 428.189 241.835C430.988 242.768 433.748 243.818 436.469 244.984C439.268 246.15 441.795 247.666 444.049 249.532C446.382 251.32 448.248 253.653 449.647 256.529C451.047 259.406 451.746 263.021 451.746 267.375C451.746 274.684 449.142 280.476 443.933 284.752C438.801 289.028 431.843 291.166 423.057 291.166ZM488.343 291.166C482.901 291.166 477.964 289.883 473.532 287.318C469.1 284.674 465.563 281.137 462.919 276.705C460.354 272.273 459.071 267.336 459.071 261.894C459.071 256.452 460.354 251.554 462.919 247.2C465.563 242.846 469.1 239.386 473.532 236.82C477.964 234.177 482.901 232.855 488.343 232.855C493.863 232.855 498.839 234.138 503.271 236.704C507.702 239.269 511.201 242.768 513.767 247.2C516.41 251.554 517.732 256.452 517.732 261.894C517.732 267.336 516.41 272.273 513.767 276.705C511.201 281.137 507.702 284.674 503.271 287.318C498.839 289.883 493.863 291.166 488.343 291.166ZM488.343 278.804C491.531 278.804 494.33 278.105 496.74 276.705C499.228 275.228 501.133 273.206 502.454 270.641C503.854 268.075 504.554 265.159 504.554 261.894C504.554 258.629 503.854 255.752 502.454 253.264C501.055 250.776 499.15 248.832 496.74 247.433C494.33 245.956 491.531 245.217 488.343 245.217C485.233 245.217 482.434 245.956 479.946 247.433C477.536 248.832 475.631 250.776 474.232 253.264C472.91 255.752 472.249 258.629 472.249 261.894C472.249 265.159 472.91 268.075 474.232 270.641C475.631 273.206 477.536 275.228 479.946 276.705C482.434 278.105 485.233 278.804 488.343 278.804ZM551.375 291.166C546.632 291.166 542.395 290.117 538.663 288.017C535.009 285.918 532.132 283.042 530.033 279.387C528.011 275.655 527.001 271.379 527.001 266.559V234.021H539.829V265.976C539.829 268.697 540.257 271.029 541.112 272.973C542.045 274.839 543.367 276.277 545.077 277.288C546.865 278.299 548.964 278.804 551.375 278.804C555.107 278.804 557.944 277.716 559.888 275.539C561.91 273.284 562.92 270.096 562.92 265.976V234.021H575.749V266.559C575.749 271.457 574.699 275.772 572.6 279.504C570.578 283.158 567.741 286.035 564.086 288.134C560.432 290.155 556.195 291.166 551.375 291.166ZM588.647 290V234.021H601.476V290H588.647ZM601.476 258.862L597.044 256.646C597.044 249.571 598.599 243.856 601.709 239.503C604.897 235.071 609.678 232.855 616.054 232.855C618.852 232.855 621.379 233.36 623.634 234.371C625.889 235.382 627.988 237.015 629.932 239.269L621.535 247.899C620.524 246.811 619.397 246.033 618.153 245.567C616.909 245.1 615.47 244.867 613.838 244.867C610.261 244.867 607.307 245.995 604.974 248.249C602.642 250.504 601.476 254.041 601.476 258.862ZM660.204 291.166C654.684 291.166 649.669 289.883 645.16 287.318C640.728 284.752 637.23 281.253 634.664 276.822C632.098 272.39 630.815 267.453 630.815 262.011C630.815 256.491 632.098 251.554 634.664 247.2C637.23 242.768 640.728 239.269 645.16 236.704C649.669 234.138 654.684 232.855 660.204 232.855C664.558 232.855 668.601 233.71 672.333 235.421C676.142 237.054 679.369 239.425 682.012 242.535L673.616 251.048C671.983 249.104 670 247.666 667.668 246.733C665.413 245.722 662.925 245.217 660.204 245.217C657.016 245.217 654.179 245.956 651.691 247.433C649.281 248.832 647.376 250.776 645.976 253.264C644.654 255.752 643.994 258.667 643.994 262.011C643.994 265.276 644.654 268.192 645.976 270.757C647.376 273.245 649.281 275.228 651.691 276.705C654.179 278.105 657.016 278.804 660.204 278.804C662.925 278.804 665.413 278.338 667.668 277.405C670 276.394 671.983 274.917 673.616 272.973L682.012 281.487C679.369 284.597 676.142 287.007 672.333 288.717C668.601 290.35 664.558 291.166 660.204 291.166ZM716.129 291.166C710.531 291.166 705.478 289.922 700.968 287.434C696.537 284.869 692.999 281.37 690.356 276.938C687.79 272.507 686.507 267.531 686.507 262.011C686.507 256.491 687.79 251.554 690.356 247.2C692.921 242.768 696.381 239.269 700.735 236.704C705.167 234.138 710.065 232.855 715.429 232.855C720.638 232.855 725.226 234.06 729.191 236.47C733.234 238.881 736.382 242.185 738.637 246.383C740.97 250.582 742.136 255.363 742.136 260.728C742.136 261.661 742.058 262.633 741.903 263.643C741.825 264.576 741.669 265.626 741.436 266.792H695.487V256.296H734.789L730.007 260.495C729.852 257.074 729.191 254.197 728.025 251.865C726.858 249.532 725.187 247.744 723.01 246.5C720.911 245.256 718.306 244.634 715.196 244.634C711.931 244.634 709.093 245.334 706.683 246.733C704.272 248.133 702.407 250.115 701.085 252.681C699.763 255.169 699.102 258.162 699.102 261.661C699.102 265.159 699.802 268.231 701.201 270.874C702.601 273.517 704.583 275.578 707.149 277.055C709.715 278.454 712.669 279.154 716.012 279.154C718.889 279.154 721.533 278.649 723.943 277.638C726.431 276.627 728.53 275.15 730.24 273.206L738.404 281.487C735.683 284.674 732.378 287.084 728.491 288.717C724.604 290.35 720.483 291.166 716.129 291.166Z" fill="white"/>
<path d="M60.031 369.328C58.2358 369.328 56.7032 369 55.4334 368.343C54.1636 367.686 53.0361 366.734 52.0509 365.486L54.1526 363.384C54.8751 364.391 55.7071 365.158 56.6485 365.683C57.5899 366.187 58.7503 366.438 60.1295 366.438C61.4869 366.438 62.5707 366.143 63.3807 365.552C64.2127 364.961 64.6286 364.151 64.6286 363.122C64.6286 362.268 64.4316 361.578 64.0375 361.053C63.6434 360.527 63.107 360.1 62.4283 359.772C61.7715 359.422 61.0491 359.115 60.2609 358.852C59.4727 358.568 58.6846 358.272 57.8964 357.966C57.1083 357.637 56.3858 357.243 55.729 356.783C55.0722 356.302 54.5358 355.678 54.1198 354.912C53.7257 354.145 53.5287 353.182 53.5287 352.022C53.5287 350.73 53.8352 349.635 54.4482 348.738C55.0831 347.818 55.937 347.118 57.0097 346.636C58.1044 346.132 59.3304 345.881 60.6878 345.881C62.1766 345.881 63.5121 346.176 64.6943 346.767C65.8766 347.336 66.8399 348.092 67.5842 349.033L65.4825 351.135C64.8038 350.347 64.0704 349.756 63.2822 349.362C62.5159 348.968 61.6292 348.771 60.6221 348.771C59.3961 348.771 58.4219 349.044 57.6994 349.592C56.9769 350.117 56.6157 350.861 56.6157 351.825C56.6157 352.591 56.8127 353.215 57.2068 353.697C57.6228 354.156 58.1591 354.55 58.8159 354.879C59.4727 355.207 60.1952 355.514 60.9834 355.798C61.7934 356.061 62.5926 356.357 63.3807 356.685C64.1689 357.013 64.8914 357.429 65.5482 357.933C66.205 358.436 66.7304 359.093 67.1245 359.903C67.5405 360.691 67.7484 361.688 67.7484 362.892C67.7484 364.906 67.0479 366.482 65.6467 367.621C64.2674 368.759 62.3955 369.328 60.031 369.328ZM69.4964 369L78.823 346.209H81.0561L90.3499 369H87.0002L79.3484 349.723H80.4978L72.7804 369H69.4964ZM73.9298 363.844V361.151H85.9165V363.844H73.9298ZM95.8498 360.133V357.44H102.057C102.91 357.44 103.666 357.265 104.323 356.915C105.001 356.565 105.527 356.072 105.899 355.437C106.293 354.802 106.49 354.047 106.49 353.171C106.49 352.295 106.293 351.54 105.899 350.905C105.527 350.27 105.001 349.778 104.323 349.427C103.666 349.077 102.91 348.902 102.057 348.902H95.8498V346.209H102.254C103.655 346.209 104.903 346.494 105.997 347.063C107.114 347.632 107.99 348.442 108.625 349.493C109.281 350.522 109.61 351.748 109.61 353.171C109.61 354.572 109.281 355.798 108.625 356.849C107.99 357.878 107.114 358.688 105.997 359.279C104.903 359.849 103.655 360.133 102.254 360.133H95.8498ZM93.7809 369V346.209H96.8678V369H93.7809ZM123.891 369L117.717 353.401H120.804L125.27 365.552H124.285L128.719 353.401H130.426L134.86 365.552H133.875L138.341 353.401H141.428L135.287 369H133.546L129.047 357.21H130.131L125.599 369H123.891ZM143.831 369V353.401H146.787V369H143.831ZM145.309 350.281C144.762 350.281 144.313 350.106 143.963 349.756C143.612 349.384 143.437 348.924 143.437 348.376C143.437 347.851 143.612 347.413 143.963 347.063C144.313 346.691 144.762 346.505 145.309 346.505C145.856 346.505 146.305 346.691 146.655 347.063C147.006 347.413 147.181 347.851 147.181 348.376C147.181 348.924 147.006 349.384 146.655 349.756C146.305 350.106 145.856 350.281 145.309 350.281ZM153.54 369V346.866H156.495V369H153.54ZM149.698 356.094V353.401H160.338V356.094H149.698ZM174.267 369V359.903C174.267 358.721 173.895 357.747 173.151 356.981C172.406 356.214 171.443 355.831 170.261 355.831C169.473 355.831 168.772 356.006 168.159 356.357C167.546 356.707 167.064 357.189 166.714 357.802C166.364 358.415 166.189 359.115 166.189 359.903L164.974 359.214C164.974 358.031 165.236 356.981 165.762 356.061C166.287 355.141 167.021 354.419 167.962 353.894C168.903 353.346 169.965 353.073 171.148 353.073C172.33 353.073 173.37 353.335 174.267 353.861C175.187 354.386 175.909 355.12 176.435 356.061C176.96 357.002 177.223 358.086 177.223 359.312V369H174.267ZM163.233 369V345.552H166.189V369H163.233ZM188.581 369V346.209H190.748L200.403 362.071H198.926L208.581 346.209H210.748V369H207.661V351.628L208.384 351.825L200.765 364.337H198.597L190.978 351.825L191.668 351.628V369H188.581ZM215.637 369V353.401H218.592V369H215.637ZM217.115 350.281C216.567 350.281 216.118 350.106 215.768 349.756C215.418 349.384 215.243 348.924 215.243 348.376C215.243 347.851 215.418 347.413 215.768 347.063C216.118 346.691 216.567 346.505 217.115 346.505C217.662 346.505 218.111 346.691 218.461 347.063C218.811 347.413 218.987 347.851 218.987 348.376C218.987 348.924 218.811 349.384 218.461 349.756C218.111 350.106 217.662 350.281 217.115 350.281ZM227.907 369.328C227.031 369.328 226.199 369.219 225.411 369C224.645 368.759 223.933 368.431 223.277 368.015C222.62 367.577 222.05 367.062 221.569 366.471L223.474 364.567C224.043 365.267 224.7 365.793 225.444 366.143C226.188 366.471 227.02 366.636 227.94 366.636C228.859 366.636 229.571 366.482 230.074 366.176C230.578 365.847 230.83 365.399 230.83 364.829C230.83 364.26 230.622 363.822 230.206 363.516C229.812 363.187 229.297 362.925 228.662 362.728C228.027 362.509 227.349 362.301 226.626 362.104C225.926 361.885 225.258 361.611 224.623 361.283C223.988 360.954 223.463 360.505 223.047 359.936C222.653 359.367 222.456 358.612 222.456 357.67C222.456 356.729 222.685 355.919 223.145 355.24C223.605 354.539 224.24 354.003 225.05 353.631C225.882 353.259 226.878 353.073 228.038 353.073C229.264 353.073 230.348 353.291 231.289 353.729C232.253 354.145 233.041 354.78 233.654 355.634L231.749 357.539C231.311 356.97 230.764 356.532 230.107 356.225C229.472 355.919 228.75 355.765 227.94 355.765C227.086 355.765 226.429 355.919 225.969 356.225C225.532 356.51 225.313 356.915 225.313 357.44C225.313 357.966 225.51 358.371 225.904 358.655C226.298 358.94 226.812 359.181 227.447 359.378C228.104 359.575 228.783 359.783 229.483 360.002C230.184 360.199 230.852 360.473 231.487 360.823C232.121 361.173 232.636 361.644 233.03 362.235C233.446 362.826 233.654 363.603 233.654 364.567C233.654 366.033 233.129 367.194 232.078 368.048C231.049 368.901 229.658 369.328 227.907 369.328ZM239.36 369V346.866H242.316V369H239.36ZM235.518 356.094V353.401H246.158V356.094H235.518ZM249.053 369V353.401H252.009V369H249.053ZM252.009 360.1L250.892 359.608C250.892 357.615 251.352 356.028 252.272 354.846C253.191 353.664 254.516 353.073 256.245 353.073C257.034 353.073 257.745 353.215 258.38 353.499C259.015 353.762 259.606 354.211 260.153 354.846L258.216 356.849C257.887 356.499 257.526 356.247 257.132 356.094C256.738 355.941 256.278 355.864 255.753 355.864C254.658 355.864 253.76 356.214 253.06 356.915C252.359 357.615 252.009 358.677 252.009 360.1ZM268.355 369.328C266.932 369.328 265.64 368.978 264.48 368.278C263.319 367.555 262.4 366.581 261.721 365.355C261.064 364.129 260.736 362.749 260.736 361.217C260.736 359.684 261.064 358.305 261.721 357.079C262.4 355.853 263.308 354.879 264.447 354.156C265.607 353.434 266.91 353.073 268.355 353.073C269.537 353.073 270.588 353.324 271.508 353.828C272.449 354.31 273.204 354.988 273.774 355.864C274.343 356.718 274.66 357.714 274.726 358.852V363.549C274.66 364.665 274.343 365.661 273.774 366.537C273.226 367.413 272.482 368.102 271.54 368.606C270.621 369.088 269.559 369.328 268.355 369.328ZM268.848 366.537C270.314 366.537 271.497 366.044 272.394 365.059C273.292 364.052 273.741 362.771 273.741 361.217C273.741 360.144 273.533 359.214 273.117 358.425C272.723 357.615 272.153 356.991 271.409 356.554C270.665 356.094 269.8 355.864 268.815 355.864C267.829 355.864 266.954 356.094 266.187 356.554C265.443 357.013 264.852 357.648 264.414 358.458C263.998 359.246 263.79 360.155 263.79 361.184C263.79 362.235 263.998 363.165 264.414 363.975C264.852 364.764 265.454 365.388 266.22 365.847C266.987 366.307 267.862 366.537 268.848 366.537ZM273.544 369V364.796L274.102 360.987L273.544 357.21V353.401H276.532V369H273.544ZM280.835 369V345.552H283.791V369H280.835ZM292.867 369L302.193 346.209H304.426L313.72 369H310.37L302.719 349.723H303.868L296.151 369H292.867ZM297.3 363.844V361.151H309.287V363.844H297.3ZM317.151 369V346.209H320.238V369H317.151ZM342.826 369.328C341.206 369.328 339.695 369.033 338.294 368.442C336.893 367.829 335.667 366.986 334.616 365.913C333.565 364.818 332.744 363.559 332.153 362.136C331.584 360.713 331.299 359.192 331.299 357.572C331.299 355.93 331.584 354.408 332.153 353.007C332.744 351.584 333.554 350.336 334.583 349.263C335.634 348.19 336.849 347.358 338.229 346.767C339.63 346.176 341.14 345.881 342.761 345.881C344.381 345.881 345.88 346.176 347.26 346.767C348.661 347.358 349.887 348.19 350.938 349.263C351.989 350.336 352.81 351.584 353.401 353.007C353.992 354.43 354.287 355.962 354.287 357.604C354.287 359.225 353.992 360.746 353.401 362.169C352.81 363.592 351.989 364.84 350.938 365.913C349.909 366.986 348.694 367.829 347.292 368.442C345.913 369.033 344.424 369.328 342.826 369.328ZM342.761 366.373C344.403 366.373 345.837 366.001 347.063 365.256C348.311 364.49 349.296 363.45 350.018 362.136C350.741 360.801 351.102 359.279 351.102 357.572C351.102 356.302 350.894 355.141 350.478 354.091C350.062 353.018 349.482 352.087 348.737 351.299C347.993 350.511 347.117 349.909 346.11 349.493C345.103 349.055 343.987 348.836 342.761 348.836C341.14 348.836 339.706 349.208 338.458 349.953C337.232 350.697 336.258 351.726 335.536 353.04C334.835 354.353 334.485 355.864 334.485 357.572C334.485 358.841 334.682 360.024 335.076 361.118C335.492 362.191 336.061 363.122 336.784 363.91C337.528 364.676 338.404 365.278 339.411 365.716C340.44 366.154 341.556 366.373 342.761 366.373ZM369.059 369.328C367.417 369.328 365.895 369.033 364.494 368.442C363.093 367.829 361.867 366.986 360.816 365.913C359.787 364.84 358.988 363.592 358.419 362.169C357.85 360.746 357.565 359.225 357.565 357.604C357.565 355.962 357.85 354.43 358.419 353.007C358.988 351.584 359.787 350.347 360.816 349.296C361.867 348.223 363.082 347.391 364.461 346.8C365.863 346.187 367.384 345.881 369.026 345.881C370.821 345.881 372.398 346.187 373.755 346.8C375.113 347.413 376.317 348.245 377.368 349.296L375.233 351.431C374.51 350.62 373.624 349.986 372.573 349.526C371.544 349.066 370.362 348.836 369.026 348.836C367.822 348.836 366.716 349.055 365.709 349.493C364.702 349.909 363.827 350.511 363.082 351.299C362.338 352.087 361.758 353.018 361.342 354.091C360.948 355.163 360.75 356.335 360.75 357.604C360.75 358.874 360.948 360.046 361.342 361.118C361.758 362.191 362.338 363.122 363.082 363.91C363.827 364.698 364.702 365.311 365.709 365.749C366.716 366.165 367.822 366.373 369.026 366.373C370.449 366.373 371.686 366.143 372.737 365.683C373.788 365.201 374.675 364.556 375.397 363.746L377.532 365.847C376.481 366.942 375.244 367.796 373.821 368.409C372.42 369.022 370.832 369.328 369.059 369.328ZM383.393 359.082V356.488H389.567C390.902 356.488 391.931 356.149 392.654 355.47C393.376 354.791 393.738 353.872 393.738 352.711C393.738 351.617 393.376 350.708 392.654 349.986C391.953 349.263 390.935 348.902 389.6 348.902H383.393V346.209H389.698C391.143 346.209 392.402 346.494 393.475 347.063C394.548 347.61 395.369 348.365 395.938 349.329C396.529 350.292 396.825 351.398 396.825 352.646C396.825 353.937 396.529 355.065 395.938 356.028C395.369 356.991 394.548 357.747 393.475 358.294C392.402 358.82 391.143 359.082 389.698 359.082H383.393ZM381.324 369V346.209H384.411V369H381.324ZM394.46 369L386.184 358.787L389.107 357.769L398.368 369H394.46ZM400.4 361.151L408.709 346.209H412.19L403.717 361.151H400.4ZM400.4 363.056V361.151L401.714 360.297H417.871V363.056H400.4ZM411.533 369V353.926H414.587V369H411.533ZM419.928 372.612L421.964 368.704L423.015 368.442C422.906 368.683 422.764 368.88 422.588 369.033C422.435 369.186 422.238 369.263 421.997 369.263C421.537 369.263 421.111 369.077 420.716 368.704C420.344 368.31 420.158 367.829 420.158 367.259C420.158 366.625 420.366 366.099 420.782 365.683C421.198 365.245 421.724 365.026 422.358 365.026C422.928 365.026 423.431 365.245 423.869 365.683C424.307 366.099 424.526 366.625 424.526 367.259C424.526 367.5 424.471 367.796 424.362 368.146C424.274 368.475 424.088 368.901 423.803 369.427L421.636 373.532L419.928 372.612ZM442.503 369.328C440.707 369.328 439.175 369 437.905 368.343C436.635 367.686 435.508 366.734 434.522 365.486L436.624 363.384C437.347 364.391 438.179 365.158 439.12 365.683C440.061 366.187 441.222 366.438 442.601 366.438C443.958 366.438 445.042 366.143 445.852 365.552C446.684 364.961 447.1 364.151 447.1 363.122C447.1 362.268 446.903 361.578 446.509 361.053C446.115 360.527 445.579 360.1 444.9 359.772C444.243 359.422 443.521 359.115 442.732 358.852C441.944 358.568 441.156 358.272 440.368 357.966C439.58 357.637 438.857 357.243 438.2 356.783C437.544 356.302 437.007 355.678 436.591 354.912C436.197 354.145 436 353.182 436 352.022C436 350.73 436.307 349.635 436.92 348.738C437.555 347.818 438.408 347.118 439.481 346.636C440.576 346.132 441.802 345.881 443.159 345.881C444.648 345.881 445.984 346.176 447.166 346.767C448.348 347.336 449.311 348.092 450.056 349.033L447.954 351.135C447.275 350.347 446.542 349.756 445.754 349.362C444.987 348.968 444.101 348.771 443.094 348.771C441.868 348.771 440.893 349.044 440.171 349.592C439.448 350.117 439.087 350.861 439.087 351.825C439.087 352.591 439.284 353.215 439.678 353.697C440.094 354.156 440.631 354.55 441.287 354.879C441.944 355.207 442.667 355.514 443.455 355.798C444.265 356.061 445.064 356.357 445.852 356.685C446.64 357.013 447.363 357.429 448.02 357.933C448.676 358.436 449.202 359.093 449.596 359.903C450.012 360.691 450.22 361.688 450.22 362.892C450.22 364.906 449.519 366.482 448.118 367.621C446.739 368.759 444.867 369.328 442.503 369.328ZM451.968 369L461.295 346.209H463.528L472.821 369H469.472L461.82 349.723H462.969L455.252 369H451.968ZM456.401 363.844V361.151H468.388V363.844H456.401ZM478.321 360.133V357.44H484.528C485.382 357.44 486.137 357.265 486.794 356.915C487.473 356.565 487.998 356.072 488.37 355.437C488.764 354.802 488.962 354.047 488.962 353.171C488.962 352.295 488.764 351.54 488.37 350.905C487.998 350.27 487.473 349.778 486.794 349.427C486.137 349.077 485.382 348.902 484.528 348.902H478.321V346.209H484.725C486.126 346.209 487.374 346.494 488.469 347.063C489.585 347.632 490.461 348.442 491.096 349.493C491.753 350.522 492.081 351.748 492.081 353.171C492.081 354.572 491.753 355.798 491.096 356.849C490.461 357.878 489.585 358.688 488.469 359.279C487.374 359.849 486.126 360.133 484.725 360.133H478.321ZM476.252 369V346.209H479.339V369H476.252ZM499.817 369L509.144 346.209H511.377L520.67 369H517.321L509.669 349.723H510.818L503.101 369H499.817ZM504.25 363.844V361.151H516.237V363.844H504.25ZM524.101 369V346.209H527.188V369H524.101ZM549.744 369.328C548.102 369.328 546.58 369.033 545.179 368.442C543.778 367.829 542.552 366.986 541.501 365.913C540.472 364.84 539.673 363.592 539.103 362.169C538.534 360.746 538.25 359.225 538.25 357.604C538.25 355.962 538.534 354.43 539.103 353.007C539.673 351.584 540.472 350.347 541.501 349.296C542.552 348.223 543.767 347.391 545.146 346.8C546.547 346.187 548.069 345.881 549.711 345.881C551.506 345.881 553.082 346.187 554.44 346.8C555.797 347.413 557.001 348.245 558.052 349.296L555.918 351.431C555.195 350.62 554.308 349.986 553.258 349.526C552.229 349.066 551.046 348.836 549.711 348.836C548.507 348.836 547.401 349.055 546.394 349.493C545.387 349.909 544.511 350.511 543.767 351.299C543.022 352.087 542.442 353.018 542.026 354.091C541.632 355.163 541.435 356.335 541.435 357.604C541.435 358.874 541.632 360.046 542.026 361.118C542.442 362.191 543.022 363.122 543.767 363.91C544.511 364.698 545.387 365.311 546.394 365.749C547.401 366.165 548.507 366.373 549.711 366.373C551.134 366.373 552.371 366.143 553.422 365.683C554.473 365.201 555.359 364.556 556.082 363.746L558.216 365.847C557.165 366.942 555.929 367.796 554.505 368.409C553.104 369.022 551.517 369.328 549.744 369.328ZM568.064 369.328C566.532 369.328 565.152 368.967 563.926 368.245C562.7 367.522 561.726 366.548 561.004 365.322C560.281 364.074 559.92 362.684 559.92 361.151C559.92 359.641 560.281 358.283 561.004 357.079C561.726 355.853 562.7 354.879 563.926 354.156C565.152 353.434 566.532 353.073 568.064 353.073C569.575 353.073 570.943 353.434 572.169 354.156C573.417 354.857 574.402 355.82 575.125 357.046C575.847 358.272 576.209 359.641 576.209 361.151C576.209 362.684 575.847 364.074 575.125 365.322C574.402 366.548 573.417 367.522 572.169 368.245C570.943 368.967 569.575 369.328 568.064 369.328ZM568.064 366.471C569.05 366.471 569.925 366.241 570.692 365.782C571.458 365.322 572.06 364.698 572.498 363.91C572.936 363.1 573.155 362.18 573.155 361.151C573.155 360.144 572.925 359.246 572.465 358.458C572.027 357.67 571.425 357.057 570.659 356.619C569.914 356.16 569.05 355.93 568.064 355.93C567.079 355.93 566.203 356.16 565.437 356.619C564.671 357.057 564.069 357.67 563.631 358.458C563.193 359.246 562.974 360.144 562.974 361.151C562.974 362.18 563.193 363.1 563.631 363.91C564.069 364.698 564.671 365.322 565.437 365.782C566.203 366.241 567.079 366.471 568.064 366.471ZM579.539 369V353.401H582.494V369H579.539ZM582.494 360.1L581.378 359.608C581.378 357.615 581.838 356.028 582.757 354.846C583.677 353.664 585.001 353.073 586.731 353.073C587.519 353.073 588.231 353.215 588.865 353.499C589.5 353.762 590.091 354.211 590.639 354.846L588.701 356.849C588.373 356.499 588.012 356.247 587.618 356.094C587.223 355.941 586.764 355.864 586.238 355.864C585.144 355.864 584.246 356.214 583.545 356.915C582.845 357.615 582.494 358.677 582.494 360.1ZM599.431 369.328C597.877 369.328 596.476 368.978 595.228 368.278C593.98 367.555 592.995 366.581 592.272 365.355C591.55 364.129 591.189 362.738 591.189 361.184C591.189 359.652 591.539 358.272 592.239 357.046C592.962 355.82 593.925 354.857 595.129 354.156C596.355 353.434 597.724 353.073 599.234 353.073C600.679 353.073 601.949 353.401 603.044 354.058C604.16 354.715 605.025 355.623 605.638 356.783C606.273 357.944 606.591 359.257 606.591 360.724C606.591 360.943 606.58 361.184 606.558 361.447C606.536 361.688 606.492 361.972 606.426 362.301H593.258V359.838H604.85L603.766 360.79C603.766 359.739 603.58 358.852 603.208 358.13C602.836 357.386 602.31 356.816 601.632 356.422C600.953 356.006 600.132 355.798 599.169 355.798C598.162 355.798 597.275 356.017 596.509 356.455C595.742 356.893 595.151 357.506 594.735 358.294C594.319 359.082 594.111 360.013 594.111 361.086C594.111 362.18 594.33 363.144 594.768 363.975C595.206 364.786 595.83 365.42 596.64 365.88C597.45 366.318 598.381 366.537 599.431 366.537C600.307 366.537 601.106 366.384 601.829 366.077C602.573 365.771 603.208 365.311 603.734 364.698L605.638 366.636C604.894 367.511 603.974 368.179 602.88 368.639C601.807 369.099 600.657 369.328 599.431 369.328ZM621.111 369L614.937 353.401H618.024L622.49 365.552H621.505L625.938 353.401H627.646L632.079 365.552H631.094L635.56 353.401H638.647L632.506 369H630.765L626.266 357.21H627.35L622.818 369H621.111ZM641.051 369V353.401H644.006V369H641.051ZM642.528 350.281C641.981 350.281 641.532 350.106 641.182 349.756C640.832 349.384 640.657 348.924 640.657 348.376C640.657 347.851 640.832 347.413 641.182 347.063C641.532 346.691 641.981 346.505 642.528 346.505C643.076 346.505 643.525 346.691 643.875 347.063C644.225 347.413 644.4 347.851 644.4 348.376C644.4 348.924 644.225 349.384 643.875 349.756C643.525 350.106 643.076 350.281 642.528 350.281ZM650.759 369V346.866H653.715V369H650.759ZM646.917 356.094V353.401H657.557V356.094H646.917ZM671.487 369V359.903C671.487 358.721 671.114 357.747 670.37 356.981C669.626 356.214 668.662 355.831 667.48 355.831C666.692 355.831 665.991 356.006 665.378 356.357C664.765 356.707 664.284 357.189 663.933 357.802C663.583 358.415 663.408 359.115 663.408 359.903L662.193 359.214C662.193 358.031 662.456 356.981 662.981 356.061C663.507 355.141 664.24 354.419 665.181 353.894C666.123 353.346 667.185 353.073 668.367 353.073C669.549 353.073 670.589 353.335 671.487 353.861C672.406 354.386 673.129 355.12 673.654 356.061C674.18 357.002 674.442 358.086 674.442 359.312V369H671.487ZM660.452 369V345.552H663.408V369H660.452ZM696.145 369.328C694.503 369.328 692.981 369.033 691.58 368.442C690.179 367.829 688.953 366.986 687.902 365.913C686.873 364.84 686.074 363.592 685.505 362.169C684.936 360.746 684.651 359.225 684.651 357.604C684.651 355.962 684.936 354.43 685.505 353.007C686.074 351.584 686.873 350.347 687.902 349.296C688.953 348.223 690.168 347.391 691.547 346.8C692.949 346.187 694.47 345.881 696.112 345.881C697.907 345.881 699.484 346.187 700.841 346.8C702.199 347.413 703.403 348.245 704.454 349.296L702.319 351.431C701.596 350.62 700.71 349.986 699.659 349.526C698.63 349.066 697.448 348.836 696.112 348.836C694.908 348.836 693.802 349.055 692.795 349.493C691.788 349.909 690.912 350.511 690.168 351.299C689.424 352.087 688.844 353.018 688.428 354.091C688.033 355.163 687.836 356.335 687.836 357.604C687.836 358.874 688.033 360.046 688.428 361.118C688.844 362.191 689.424 363.122 690.168 363.91C690.912 364.698 691.788 365.311 692.795 365.749C693.802 366.165 694.908 366.373 696.112 366.373C697.535 366.373 698.772 366.143 699.823 365.683C700.874 365.201 701.761 364.556 702.483 363.746L704.618 365.847C703.567 366.942 702.33 367.796 700.907 368.409C699.506 369.022 697.918 369.328 696.145 369.328ZM707.885 369V345.552H710.84V369H707.885ZM715.197 369V353.401H718.153V369H715.197ZM716.675 350.281C716.128 350.281 715.679 350.106 715.329 349.756C714.978 349.384 714.803 348.924 714.803 348.376C714.803 347.851 714.978 347.413 715.329 347.063C715.679 346.691 716.128 346.505 716.675 346.505C717.222 346.505 717.671 346.691 718.022 347.063C718.372 347.413 718.547 347.851 718.547 348.376C718.547 348.924 718.372 349.384 718.022 349.756C717.671 350.106 717.222 350.281 716.675 350.281ZM733.543 369V359.903C733.543 358.721 733.171 357.747 732.426 356.981C731.682 356.214 730.719 355.831 729.536 355.831C728.748 355.831 728.048 356.006 727.435 356.357C726.822 356.707 726.34 357.189 725.99 357.802C725.639 358.415 725.464 359.115 725.464 359.903L724.249 359.214C724.249 358.031 724.512 356.981 725.037 356.061C725.563 355.141 726.296 354.419 727.238 353.894C728.179 353.346 729.241 353.073 730.423 353.073C731.605 353.073 732.645 353.368 733.543 353.959C734.462 354.55 735.185 355.328 735.71 356.291C736.236 357.232 736.499 358.239 736.499 359.312V369H733.543ZM722.509 369V353.401H725.464V369H722.509ZM747.725 369.328C746.171 369.328 744.769 368.978 743.521 368.278C742.274 367.555 741.288 366.581 740.566 365.355C739.843 364.129 739.482 362.738 739.482 361.184C739.482 359.652 739.832 358.272 740.533 357.046C741.255 355.82 742.219 354.857 743.423 354.156C744.649 353.434 746.017 353.073 747.528 353.073C748.973 353.073 750.243 353.401 751.337 354.058C752.454 354.715 753.319 355.623 753.932 356.783C754.567 357.944 754.884 359.257 754.884 360.724C754.884 360.943 754.873 361.184 754.851 361.447C754.829 361.688 754.786 361.972 754.72 362.301H741.551V359.838H753.144L752.06 360.79C752.06 359.739 751.874 358.852 751.502 358.13C751.129 357.386 750.604 356.816 749.925 356.422C749.247 356.006 748.426 355.798 747.462 355.798C746.455 355.798 745.568 356.017 744.802 356.455C744.036 356.893 743.445 357.506 743.029 358.294C742.613 359.082 742.405 360.013 742.405 361.086C742.405 362.18 742.624 363.144 743.062 363.975C743.5 364.786 744.124 365.42 744.934 365.88C745.744 366.318 746.674 366.537 747.725 366.537C748.601 366.537 749.4 366.384 750.122 366.077C750.867 365.771 751.502 365.311 752.027 364.698L753.932 366.636C753.187 367.511 752.268 368.179 751.173 368.639C750.1 369.099 748.951 369.328 747.725 369.328ZM758.271 372.612L760.307 368.704L761.358 368.442C761.248 368.683 761.106 368.88 760.931 369.033C760.778 369.186 760.581 369.263 760.34 369.263C759.88 369.263 759.453 369.077 759.059 368.704C758.687 368.31 758.501 367.829 758.501 367.259C758.501 366.625 758.709 366.099 759.125 365.683C759.541 365.245 760.066 365.026 760.701 365.026C761.27 365.026 761.774 365.245 762.212 365.683C762.65 366.099 762.869 366.625 762.869 367.259C762.869 367.5 762.814 367.796 762.704 368.146C762.617 368.475 762.431 368.901 762.146 369.427L759.979 373.532L758.271 372.612ZM780.845 369.328C779.05 369.328 777.517 369 776.248 368.343C774.978 367.686 773.85 366.734 772.865 365.486L774.967 363.384C775.689 364.391 776.521 365.158 777.463 365.683C778.404 366.187 779.564 366.438 780.944 366.438C782.301 366.438 783.385 366.143 784.195 365.552C785.027 364.961 785.443 364.151 785.443 363.122C785.443 362.268 785.246 361.578 784.852 361.053C784.458 360.527 783.921 360.1 783.243 359.772C782.586 359.422 781.863 359.115 781.075 358.852C780.287 358.568 779.499 358.272 778.711 357.966C777.922 357.637 777.2 357.243 776.543 356.783C775.886 356.302 775.35 355.678 774.934 354.912C774.54 354.145 774.343 353.182 774.343 352.022C774.343 350.73 774.649 349.635 775.262 348.738C775.897 347.818 776.751 347.118 777.824 346.636C778.919 346.132 780.145 345.881 781.502 345.881C782.991 345.881 784.326 346.176 785.509 346.767C786.691 347.336 787.654 348.092 788.398 349.033L786.297 351.135C785.618 350.347 784.885 349.756 784.096 349.362C783.33 348.968 782.443 348.771 781.436 348.771C780.21 348.771 779.236 349.044 778.514 349.592C777.791 350.117 777.43 350.861 777.43 351.825C777.43 352.591 777.627 353.215 778.021 353.697C778.437 354.156 778.973 354.55 779.63 354.879C780.287 355.207 781.009 355.514 781.798 355.798C782.608 356.061 783.407 356.357 784.195 356.685C784.983 357.013 785.706 357.429 786.362 357.933C787.019 358.436 787.545 359.093 787.939 359.903C788.355 360.691 788.563 361.688 788.563 362.892C788.563 364.906 787.862 366.482 786.461 367.621C785.082 368.759 783.21 369.328 780.845 369.328ZM790.311 369L799.637 346.209H801.87L811.164 369H807.814L800.163 349.723H801.312L793.595 369H790.311ZM794.744 363.844V361.151H806.731V363.844H794.744ZM816.664 360.133V357.44H822.871C823.725 357.44 824.48 357.265 825.137 356.915C825.815 356.565 826.341 356.072 826.713 355.437C827.107 354.802 827.304 354.047 827.304 353.171C827.304 352.295 827.107 351.54 826.713 350.905C826.341 350.27 825.815 349.778 825.137 349.427C824.48 349.077 823.725 348.902 822.871 348.902H816.664V346.209H823.068C824.469 346.209 825.717 346.494 826.812 347.063C827.928 347.632 828.804 348.442 829.439 349.493C830.096 350.522 830.424 351.748 830.424 353.171C830.424 354.572 830.096 355.798 829.439 356.849C828.804 357.878 827.928 358.688 826.812 359.279C825.717 359.849 824.469 360.133 823.068 360.133H816.664ZM814.595 369V346.209H817.682V369H814.595ZM844.705 369L838.531 353.401H841.618L846.085 365.552H845.099L849.533 353.401H851.241L855.674 365.552H854.689L859.155 353.401H862.242L856.101 369H854.36L849.861 357.21H850.945L846.413 369H844.705ZM864.645 369V353.401H867.601V369H864.645ZM866.123 350.281C865.576 350.281 865.127 350.106 864.777 349.756C864.426 349.384 864.251 348.924 864.251 348.376C864.251 347.851 864.426 347.413 864.777 347.063C865.127 346.691 865.576 346.505 866.123 346.505C866.671 346.505 867.119 346.691 867.47 347.063C867.82 347.413 867.995 347.851 867.995 348.376C867.995 348.924 867.82 349.384 867.47 349.756C867.119 350.106 866.671 350.281 866.123 350.281ZM874.354 369V346.866H877.31V369H874.354ZM870.512 356.094V353.401H881.152V356.094H870.512ZM895.081 369V359.903C895.081 358.721 894.709 357.747 893.965 356.981C893.221 356.214 892.257 355.831 891.075 355.831C890.287 355.831 889.586 356.006 888.973 356.357C888.36 356.707 887.879 357.189 887.528 357.802C887.178 358.415 887.003 359.115 887.003 359.903L885.788 359.214C885.788 358.031 886.05 356.981 886.576 356.061C887.101 355.141 887.835 354.419 888.776 353.894C889.718 353.346 890.779 353.073 891.962 353.073C893.144 353.073 894.184 353.335 895.081 353.861C896.001 354.386 896.723 355.12 897.249 356.061C897.774 357.002 898.037 358.086 898.037 359.312V369H895.081ZM884.047 369V345.552H887.003V369H884.047ZM60.031 400.328C58.2358 400.328 56.7032 400 55.4334 399.343C54.1636 398.686 53.0361 397.734 52.0509 396.486L54.1526 394.384C54.8751 395.391 55.7071 396.158 56.6485 396.683C57.5899 397.187 58.7503 397.438 60.1295 397.438C61.4869 397.438 62.5707 397.143 63.3807 396.552C64.2127 395.961 64.6286 395.151 64.6286 394.122C64.6286 393.268 64.4316 392.578 64.0375 392.053C63.6434 391.527 63.107 391.1 62.4283 390.772C61.7715 390.422 61.0491 390.115 60.2609 389.852C59.4727 389.568 58.6846 389.272 57.8964 388.966C57.1083 388.637 56.3858 388.243 55.729 387.783C55.0722 387.302 54.5358 386.678 54.1198 385.912C53.7257 385.145 53.5287 384.182 53.5287 383.022C53.5287 381.73 53.8352 380.635 54.4482 379.738C55.0831 378.818 55.937 378.118 57.0097 377.636C58.1044 377.132 59.3304 376.881 60.6878 376.881C62.1766 376.881 63.5121 377.176 64.6943 377.767C65.8766 378.336 66.8399 379.092 67.5842 380.033L65.4825 382.135C64.8038 381.347 64.0704 380.756 63.2822 380.362C62.5159 379.968 61.6292 379.771 60.6221 379.771C59.3961 379.771 58.4219 380.044 57.6994 380.592C56.9769 381.117 56.6157 381.861 56.6157 382.825C56.6157 383.591 56.8127 384.215 57.2068 384.697C57.6228 385.156 58.1591 385.55 58.8159 385.879C59.4727 386.207 60.1952 386.514 60.9834 386.798C61.7934 387.061 62.5926 387.357 63.3807 387.685C64.1689 388.013 64.8914 388.429 65.5482 388.933C66.205 389.436 66.7304 390.093 67.1245 390.903C67.5405 391.691 67.7484 392.688 67.7484 393.892C67.7484 395.906 67.0479 397.482 65.6467 398.621C64.2674 399.759 62.3955 400.328 60.031 400.328ZM76.127 400L68.9679 384.401H72.2519L77.9989 397.57H76.0942L81.874 384.401H85.0267L77.8676 400H76.127ZM94.1624 400.328C92.608 400.328 91.2068 399.978 89.9589 399.278C88.7109 398.555 87.7257 397.581 87.0033 396.355C86.2808 395.129 85.9195 393.738 85.9195 392.184C85.9195 390.652 86.2698 389.272 86.9704 388.046C87.6929 386.82 88.6562 385.857 89.8603 385.156C91.0864 384.434 92.4547 384.073 93.9653 384.073C95.4103 384.073 96.6801 384.401 97.7748 385.058C98.8914 385.715 99.7562 386.623 100.369 387.783C101.004 388.944 101.322 390.257 101.322 391.724C101.322 391.943 101.311 392.184 101.289 392.447C101.267 392.688 101.223 392.972 101.157 393.301H87.9885V390.838H99.581L98.4973 391.79C98.4973 390.739 98.3112 389.852 97.939 389.13C97.5668 388.386 97.0414 387.816 96.3627 387.422C95.684 387.006 94.863 386.798 93.8997 386.798C92.8926 386.798 92.0059 387.017 91.2396 387.455C90.4734 387.893 89.8822 388.506 89.4663 389.294C89.0503 390.082 88.8423 391.013 88.8423 392.086C88.8423 393.18 89.0612 394.144 89.4991 394.975C89.937 395.786 90.5609 396.42 91.371 396.88C92.181 397.318 93.1115 397.537 94.1624 397.537C95.0381 397.537 95.8372 397.384 96.5597 397.077C97.3041 396.771 97.939 396.311 98.4644 395.698L100.369 397.636C99.6248 398.511 98.7053 399.179 97.6106 399.639C96.5378 400.099 95.3884 400.328 94.1624 400.328ZM104.544 400V376.552H107.5V400H104.544ZM114.222 400V377.866H117.177V400H114.222ZM110.379 387.094V384.401H121.019V387.094H110.379ZM130.658 400.328C129.104 400.328 127.703 399.978 126.455 399.278C125.207 398.555 124.222 397.581 123.499 396.355C122.777 395.129 122.416 393.738 122.416 392.184C122.416 390.652 122.766 389.272 123.467 388.046C124.189 386.82 125.152 385.857 126.356 385.156C127.582 384.434 128.951 384.073 130.461 384.073C131.906 384.073 133.176 384.401 134.271 385.058C135.387 385.715 136.252 386.623 136.865 387.783C137.5 388.944 137.818 390.257 137.818 391.724C137.818 391.943 137.807 392.184 137.785 392.447C137.763 392.688 137.719 392.972 137.653 393.301H124.485V390.838H136.077L134.993 391.79C134.993 390.739 134.807 389.852 134.435 389.13C134.063 388.386 133.537 387.816 132.859 387.422C132.18 387.006 131.359 386.798 130.396 386.798C129.389 386.798 128.502 387.017 127.736 387.455C126.969 387.893 126.378 388.506 125.962 389.294C125.546 390.082 125.338 391.013 125.338 392.086C125.338 393.18 125.557 394.144 125.995 394.975C126.433 395.786 127.057 396.42 127.867 396.88C128.677 397.318 129.608 397.537 130.658 397.537C131.534 397.537 132.333 397.384 133.056 397.077C133.8 396.771 134.435 396.311 134.961 395.698L136.865 397.636C136.121 398.511 135.201 399.179 134.107 399.639C133.034 400.099 131.885 400.328 130.658 400.328ZM154.505 400.328C153.082 400.328 151.79 399.978 150.63 399.278C149.47 398.555 148.55 397.581 147.871 396.355C147.215 395.129 146.886 393.749 146.886 392.217C146.886 390.684 147.215 389.305 147.871 388.079C148.55 386.853 149.459 385.879 150.597 385.156C151.757 384.434 153.06 384.073 154.505 384.073C155.687 384.073 156.738 384.324 157.658 384.828C158.599 385.31 159.354 385.988 159.924 386.864C160.493 387.718 160.81 388.714 160.876 389.852V394.549C160.81 395.665 160.493 396.661 159.924 397.537C159.376 398.413 158.632 399.102 157.691 399.606C156.771 400.088 155.709 400.328 154.505 400.328ZM154.998 397.537C156.464 397.537 157.647 397.044 158.544 396.059C159.442 395.052 159.891 393.771 159.891 392.217C159.891 391.144 159.683 390.214 159.267 389.425C158.873 388.615 158.304 387.991 157.559 387.554C156.815 387.094 155.95 386.864 154.965 386.864C153.98 386.864 153.104 387.094 152.338 387.554C151.593 388.013 151.002 388.648 150.564 389.458C150.148 390.246 149.94 391.155 149.94 392.184C149.94 393.235 150.148 394.165 150.564 394.975C151.002 395.764 151.604 396.388 152.37 396.847C153.137 397.307 154.012 397.537 154.998 397.537ZM159.694 400V395.796L160.252 391.987L159.694 388.21V384.401H162.682V400H159.694ZM178.02 400V390.903C178.02 389.721 177.647 388.747 176.903 387.981C176.159 387.214 175.195 386.831 174.013 386.831C173.225 386.831 172.524 387.006 171.911 387.357C171.298 387.707 170.817 388.189 170.466 388.802C170.116 389.415 169.941 390.115 169.941 390.903L168.726 390.214C168.726 389.031 168.989 387.981 169.514 387.061C170.039 386.141 170.773 385.419 171.714 384.894C172.656 384.346 173.717 384.073 174.9 384.073C176.082 384.073 177.122 384.368 178.02 384.959C178.939 385.55 179.662 386.328 180.187 387.291C180.712 388.232 180.975 389.239 180.975 390.312V400H178.02ZM166.985 400V384.401H169.941V400H166.985ZM191.578 400.328C190.133 400.328 188.841 399.978 187.702 399.278C186.564 398.555 185.655 397.581 184.977 396.355C184.32 395.129 183.992 393.749 183.992 392.217C183.992 390.684 184.32 389.305 184.977 388.079C185.655 386.853 186.564 385.879 187.702 385.156C188.841 384.434 190.133 384.073 191.578 384.073C192.738 384.073 193.789 384.324 194.73 384.828C195.672 385.31 196.427 385.988 196.996 386.864C197.587 387.718 197.916 388.714 197.981 389.852V394.549C197.916 395.665 197.598 396.661 197.029 397.537C196.46 398.413 195.705 399.102 194.763 399.606C193.822 400.088 192.76 400.328 191.578 400.328ZM192.07 397.537C193.055 397.537 193.909 397.307 194.632 396.847C195.376 396.388 195.956 395.764 196.372 394.975C196.788 394.165 196.996 393.246 196.996 392.217C196.996 391.144 196.777 390.214 196.339 389.425C195.923 388.637 195.343 388.013 194.599 387.554C193.876 387.094 193.023 386.864 192.037 386.864C191.052 386.864 190.187 387.094 189.443 387.554C188.699 388.013 188.108 388.648 187.67 389.458C187.254 390.246 187.046 391.155 187.046 392.184C187.046 393.235 187.254 394.165 187.67 394.975C188.108 395.764 188.699 396.388 189.443 396.847C190.209 397.307 191.085 397.537 192.07 397.537ZM199.788 400H196.799V395.796L197.357 391.987L196.799 388.21V376.552H199.788V400ZM217.26 400L209.805 377.209H212.892L218.803 395.796H217.917L223.729 377.209H225.962L231.775 395.796H230.921L236.833 377.209H239.887L232.465 400H230.265L224.419 381.445H225.273L219.46 400H217.26ZM247.972 400.328C246.418 400.328 245.016 399.978 243.768 399.278C242.521 398.555 241.535 397.581 240.813 396.355C240.09 395.129 239.729 393.738 239.729 392.184C239.729 390.652 240.079 389.272 240.78 388.046C241.503 386.82 242.466 385.857 243.67 385.156C244.896 384.434 246.264 384.073 247.775 384.073C249.22 384.073 250.49 384.401 251.584 385.058C252.701 385.715 253.566 386.623 254.179 387.783C254.814 388.944 255.131 390.257 255.131 391.724C255.131 391.943 255.12 392.184 255.098 392.447C255.076 392.688 255.033 392.972 254.967 393.301H241.798V390.838H253.391L252.307 391.79C252.307 390.739 252.121 389.852 251.749 389.13C251.376 388.386 250.851 387.816 250.172 387.422C249.494 387.006 248.673 386.798 247.709 386.798C246.702 386.798 245.816 387.017 245.049 387.455C244.283 387.893 243.692 388.506 243.276 389.294C242.86 390.082 242.652 391.013 242.652 392.086C242.652 393.18 242.871 394.144 243.309 394.975C243.747 395.786 244.371 396.42 245.181 396.88C245.991 397.318 246.921 397.537 247.972 397.537C248.848 397.537 249.647 397.384 250.369 397.077C251.114 396.771 251.749 396.311 252.274 395.698L254.179 397.636C253.434 398.511 252.515 399.179 251.42 399.639C250.347 400.099 249.198 400.328 247.972 400.328ZM266.564 400.328C265.382 400.328 264.309 400.088 263.346 399.606C262.404 399.102 261.649 398.413 261.08 397.537C260.51 396.661 260.193 395.665 260.127 394.549V389.852C260.193 388.714 260.51 387.718 261.08 386.864C261.671 385.988 262.437 385.31 263.378 384.828C264.342 384.324 265.404 384.073 266.564 384.073C267.987 384.073 269.268 384.434 270.406 385.156C271.566 385.879 272.475 386.853 273.132 388.079C273.789 389.305 274.117 390.684 274.117 392.217C274.117 393.749 273.789 395.129 273.132 396.355C272.475 397.581 271.566 398.555 270.406 399.278C269.268 399.978 267.987 400.328 266.564 400.328ZM258.354 400V376.552H261.309V388.21L260.751 391.987L261.309 395.796V400H258.354ZM266.071 397.537C267.056 397.537 267.921 397.307 268.666 396.847C269.41 396.388 270.001 395.764 270.439 394.975C270.877 394.165 271.096 393.235 271.096 392.184C271.096 391.155 270.877 390.236 270.439 389.425C270.001 388.615 269.41 387.991 268.666 387.554C267.921 387.094 267.067 386.864 266.104 386.864C265.119 386.864 264.254 387.094 263.51 387.554C262.765 387.991 262.185 388.615 261.769 389.425C261.353 390.236 261.145 391.166 261.145 392.217C261.145 393.246 261.342 394.165 261.736 394.975C262.152 395.764 262.733 396.388 263.477 396.847C264.243 397.307 265.108 397.537 266.071 397.537ZM295.169 400.328C293.527 400.328 292.005 400.033 290.604 399.442C289.203 398.829 287.977 397.986 286.926 396.913C285.897 395.84 285.098 394.592 284.529 393.169C283.959 391.746 283.675 390.225 283.675 388.604C283.675 386.962 283.959 385.43 284.529 384.007C285.098 382.584 285.897 381.347 286.926 380.296C287.977 379.223 289.192 378.391 290.571 377.8C291.972 377.187 293.494 376.881 295.136 376.881C296.931 376.881 298.508 377.187 299.865 377.8C301.222 378.413 302.427 379.245 303.477 380.296L301.343 382.431C300.62 381.62 299.734 380.986 298.683 380.526C297.654 380.066 296.472 379.836 295.136 379.836C293.932 379.836 292.826 380.055 291.819 380.493C290.812 380.909 289.936 381.511 289.192 382.299C288.448 383.087 287.867 384.018 287.451 385.091C287.057 386.163 286.86 387.335 286.86 388.604C286.86 389.874 287.057 391.046 287.451 392.118C287.867 393.191 288.448 394.122 289.192 394.91C289.936 395.698 290.812 396.311 291.819 396.749C292.826 397.165 293.932 397.373 295.136 397.373C296.559 397.373 297.796 397.143 298.847 396.683C299.898 396.201 300.785 395.556 301.507 394.746L303.642 396.847C302.591 397.942 301.354 398.796 299.931 399.409C298.529 400.022 296.942 400.328 295.169 400.328ZM313.49 400.328C311.957 400.328 310.578 399.967 309.352 399.245C308.126 398.522 307.151 397.548 306.429 396.322C305.706 395.074 305.345 393.684 305.345 392.151C305.345 390.641 305.706 389.283 306.429 388.079C307.151 386.853 308.126 385.879 309.352 385.156C310.578 384.434 311.957 384.073 313.49 384.073C315 384.073 316.368 384.434 317.595 385.156C318.842 385.857 319.828 386.82 320.55 388.046C321.273 389.272 321.634 390.641 321.634 392.151C321.634 393.684 321.273 395.074 320.55 396.322C319.828 397.548 318.842 398.522 317.595 399.245C316.368 399.967 315 400.328 313.49 400.328ZM313.49 397.471C314.475 397.471 315.35 397.241 316.117 396.782C316.883 396.322 317.485 395.698 317.923 394.91C318.361 394.1 318.58 393.18 318.58 392.151C318.58 391.144 318.35 390.246 317.89 389.458C317.452 388.67 316.85 388.057 316.084 387.619C315.34 387.16 314.475 386.93 313.49 386.93C312.504 386.93 311.629 387.16 310.862 387.619C310.096 388.057 309.494 388.67 309.056 389.458C308.618 390.246 308.399 391.144 308.399 392.151C308.399 393.18 308.618 394.1 309.056 394.91C309.494 395.698 310.096 396.322 310.862 396.782C311.629 397.241 312.504 397.471 313.49 397.471ZM324.964 400V384.401H327.92V400H324.964ZM335.506 400V390.575C335.506 389.415 335.144 388.506 334.422 387.849C333.721 387.17 332.835 386.831 331.762 386.831C331.039 386.831 330.394 386.984 329.824 387.291C329.255 387.597 328.795 388.024 328.445 388.572C328.095 389.119 327.92 389.776 327.92 390.542L326.705 389.951C326.705 388.769 326.956 387.74 327.46 386.864C327.985 385.988 328.697 385.31 329.594 384.828C330.492 384.324 331.499 384.073 332.616 384.073C333.71 384.073 334.696 384.313 335.571 384.795C336.469 385.277 337.17 385.955 337.673 386.831C338.199 387.707 338.461 388.747 338.461 389.951V400H335.506ZM346.047 400V390.575C346.047 389.415 345.686 388.506 344.964 387.849C344.263 387.17 343.387 386.831 342.336 386.831C341.614 386.831 340.957 386.984 340.366 387.291C339.797 387.597 339.337 388.024 338.987 388.572C338.636 389.119 338.461 389.776 338.461 390.542L336.786 389.951C336.852 388.747 337.17 387.718 337.739 386.864C338.33 385.988 339.085 385.31 340.005 384.828C340.924 384.324 341.931 384.073 343.026 384.073C344.165 384.073 345.183 384.313 346.08 384.795C346.978 385.277 347.689 385.955 348.215 386.831C348.762 387.707 349.036 388.758 349.036 389.984V400H346.047ZM361.268 400.328C360.085 400.328 359.013 400.088 358.049 399.606C357.108 399.102 356.353 398.413 355.783 397.537C355.214 396.661 354.897 395.665 354.831 394.549V389.852C354.897 388.714 355.214 387.718 355.783 386.864C356.375 385.988 357.141 385.31 358.082 384.828C359.046 384.324 360.107 384.073 361.268 384.073C362.691 384.073 363.972 384.434 365.11 385.156C366.27 385.879 367.179 386.853 367.836 388.079C368.493 389.305 368.821 390.684 368.821 392.217C368.821 393.749 368.493 395.129 367.836 396.355C367.179 397.581 366.27 398.555 365.11 399.278C363.972 399.978 362.691 400.328 361.268 400.328ZM353.058 406.535V384.401H356.013V388.506L355.455 392.283L356.013 396.092V406.535H353.058ZM360.775 397.537C361.76 397.537 362.625 397.307 363.369 396.847C364.114 396.388 364.705 395.764 365.143 394.975C365.581 394.165 365.8 393.235 365.8 392.184C365.8 391.155 365.581 390.236 365.143 389.425C364.705 388.615 364.114 387.991 363.369 387.554C362.625 387.094 361.771 386.864 360.808 386.864C359.823 386.864 358.958 387.094 358.214 387.554C357.469 387.991 356.889 388.615 356.473 389.425C356.057 390.236 355.849 391.166 355.849 392.217C355.849 393.246 356.046 394.165 356.44 394.975C356.856 395.764 357.436 396.388 358.181 396.847C358.947 397.307 359.812 397.537 360.775 397.537ZM379.298 400.328C377.765 400.328 376.386 399.967 375.16 399.245C373.934 398.522 372.96 397.548 372.237 396.322C371.515 395.074 371.154 393.684 371.154 392.151C371.154 390.641 371.515 389.283 372.237 388.079C372.96 386.853 373.934 385.879 375.16 385.156C376.386 384.434 377.765 384.073 379.298 384.073C380.809 384.073 382.177 384.434 383.403 385.156C384.651 385.857 385.636 386.82 386.359 388.046C387.081 389.272 387.442 390.641 387.442 392.151C387.442 393.684 387.081 395.074 386.359 396.322C385.636 397.548 384.651 398.522 383.403 399.245C382.177 399.967 380.809 400.328 379.298 400.328ZM379.298 397.471C380.283 397.471 381.159 397.241 381.925 396.782C382.691 396.322 383.293 395.698 383.731 394.91C384.169 394.1 384.388 393.18 384.388 392.151C384.388 391.144 384.158 390.246 383.699 389.458C383.261 388.67 382.659 388.057 381.892 387.619C381.148 387.16 380.283 386.93 379.298 386.93C378.313 386.93 377.437 387.16 376.671 387.619C375.904 388.057 375.302 388.67 374.865 389.458C374.427 390.246 374.208 391.144 374.208 392.151C374.208 393.18 374.427 394.1 374.865 394.91C375.302 395.698 375.904 396.322 376.671 396.782C377.437 397.241 378.313 397.471 379.298 397.471ZM401.807 400V390.903C401.807 389.721 401.435 388.747 400.69 387.981C399.946 387.214 398.983 386.831 397.8 386.831C397.012 386.831 396.312 387.006 395.698 387.357C395.085 387.707 394.604 388.189 394.254 388.802C393.903 389.415 393.728 390.115 393.728 390.903L392.513 390.214C392.513 389.031 392.776 387.981 393.301 387.061C393.827 386.141 394.56 385.419 395.501 384.894C396.443 384.346 397.505 384.073 398.687 384.073C399.869 384.073 400.909 384.368 401.807 384.959C402.726 385.55 403.449 386.328 403.974 387.291C404.5 388.232 404.762 389.239 404.762 390.312V400H401.807ZM390.772 400V384.401H393.728V400H390.772ZM415.989 400.328C414.434 400.328 413.033 399.978 411.785 399.278C410.537 398.555 409.552 397.581 408.83 396.355C408.107 395.129 407.746 393.738 407.746 392.184C407.746 390.652 408.096 389.272 408.797 388.046C409.519 386.82 410.483 385.857 411.687 385.156C412.913 384.434 414.281 384.073 415.792 384.073C417.237 384.073 418.507 384.401 419.601 385.058C420.718 385.715 421.583 386.623 422.196 387.783C422.83 388.944 423.148 390.257 423.148 391.724C423.148 391.943 423.137 392.184 423.115 392.447C423.093 392.688 423.049 392.972 422.984 393.301H409.815V390.838H421.407L420.324 391.79C420.324 390.739 420.138 389.852 419.765 389.13C419.393 388.386 418.868 387.816 418.189 387.422C417.51 387.006 416.689 386.798 415.726 386.798C414.719 386.798 413.832 387.017 413.066 387.455C412.3 387.893 411.709 388.506 411.293 389.294C410.877 390.082 410.669 391.013 410.669 392.086C410.669 393.18 410.888 394.144 411.325 394.975C411.763 395.786 412.387 396.42 413.197 396.88C414.007 397.318 414.938 397.537 415.989 397.537C416.865 397.537 417.664 397.384 418.386 397.077C419.13 396.771 419.765 396.311 420.291 395.698L422.196 397.636C421.451 398.511 420.532 399.179 419.437 399.639C418.364 400.099 417.215 400.328 415.989 400.328ZM437.405 400V390.903C437.405 389.721 437.033 388.747 436.288 387.981C435.544 387.214 434.581 386.831 433.398 386.831C432.61 386.831 431.91 387.006 431.297 387.357C430.684 387.707 430.202 388.189 429.852 388.802C429.501 389.415 429.326 390.115 429.326 390.903L428.111 390.214C428.111 389.031 428.374 387.981 428.899 387.061C429.425 386.141 430.158 385.419 431.1 384.894C432.041 384.346 433.103 384.073 434.285 384.073C435.467 384.073 436.507 384.368 437.405 384.959C438.324 385.55 439.047 386.328 439.572 387.291C440.098 388.232 440.361 389.239 440.361 390.312V400H437.405ZM426.371 400V384.401H429.326V400H426.371ZM446.567 400V377.866H449.523V400H446.567ZM442.725 387.094V384.401H453.365V387.094H442.725ZM460.898 400.328C460.023 400.328 459.191 400.219 458.403 400C457.636 399.759 456.925 399.431 456.268 399.015C455.611 398.577 455.042 398.062 454.56 397.471L456.465 395.567C457.034 396.267 457.691 396.793 458.435 397.143C459.18 397.471 460.012 397.636 460.931 397.636C461.851 397.636 462.562 397.482 463.066 397.176C463.569 396.847 463.821 396.399 463.821 395.829C463.821 395.26 463.613 394.822 463.197 394.516C462.803 394.187 462.289 393.925 461.654 393.728C461.019 393.509 460.34 393.301 459.618 393.104C458.917 392.885 458.249 392.611 457.614 392.283C456.979 391.954 456.454 391.505 456.038 390.936C455.644 390.367 455.447 389.612 455.447 388.67C455.447 387.729 455.677 386.919 456.137 386.24C456.596 385.539 457.231 385.003 458.041 384.631C458.873 384.259 459.869 384.073 461.03 384.073C462.256 384.073 463.34 384.291 464.281 384.729C465.244 385.145 466.032 385.78 466.645 386.634L464.741 388.539C464.303 387.97 463.755 387.532 463.099 387.225C462.464 386.919 461.741 386.765 460.931 386.765C460.077 386.765 459.421 386.919 458.961 387.225C458.523 387.51 458.304 387.915 458.304 388.44C458.304 388.966 458.501 389.371 458.895 389.655C459.289 389.94 459.804 390.181 460.439 390.378C461.095 390.575 461.774 390.783 462.475 391.002C463.175 391.199 463.843 391.473 464.478 391.823C465.113 392.173 465.627 392.644 466.021 393.235C466.437 393.826 466.645 394.603 466.645 395.567C466.645 397.033 466.12 398.194 465.069 399.048C464.04 399.901 462.65 400.328 460.898 400.328ZM470.118 403.612L472.155 399.704L473.205 399.442C473.096 399.683 472.954 399.88 472.779 400.033C472.625 400.186 472.428 400.263 472.187 400.263C471.728 400.263 471.301 400.077 470.907 399.704C470.534 399.31 470.348 398.829 470.348 398.259C470.348 397.625 470.556 397.099 470.972 396.683C471.388 396.245 471.914 396.026 472.549 396.026C473.118 396.026 473.621 396.245 474.059 396.683C474.497 397.099 474.716 397.625 474.716 398.259C474.716 398.5 474.661 398.796 474.552 399.146C474.464 399.475 474.278 399.901 473.994 400.427L471.826 404.532L470.118 403.612ZM493.054 400.328C491.5 400.328 490.098 399.978 488.85 399.278C487.602 398.555 486.617 397.581 485.895 396.355C485.172 395.129 484.811 393.738 484.811 392.184C484.811 390.652 485.161 389.272 485.862 388.046C486.584 386.82 487.548 385.857 488.752 385.156C489.978 384.434 491.346 384.073 492.857 384.073C494.302 384.073 495.572 384.401 496.666 385.058C497.783 385.715 498.648 386.623 499.261 387.783C499.896 388.944 500.213 390.257 500.213 391.724C500.213 391.943 500.202 392.184 500.18 392.447C500.158 392.688 500.115 392.972 500.049 393.301H486.88V390.838H498.473L497.389 391.79C497.389 390.739 497.203 389.852 496.831 389.13C496.458 388.386 495.933 387.816 495.254 387.422C494.576 387.006 493.755 386.798 492.791 386.798C491.784 386.798 490.897 387.017 490.131 387.455C489.365 387.893 488.774 388.506 488.358 389.294C487.942 390.082 487.734 391.013 487.734 392.086C487.734 393.18 487.953 394.144 488.391 394.975C488.829 395.786 489.452 396.42 490.263 396.88C491.073 397.318 492.003 397.537 493.054 397.537C493.93 397.537 494.729 397.384 495.451 397.077C496.196 396.771 496.831 396.311 497.356 395.698L499.261 397.636C498.516 398.511 497.597 399.179 496.502 399.639C495.429 400.099 494.28 400.328 493.054 400.328ZM505.352 400V377.866H508.308V400H505.352ZM501.51 387.094V384.401H512.15V387.094H501.51ZM521.691 400.328C520.158 400.328 518.768 399.967 517.52 399.245C516.294 398.522 515.32 397.548 514.597 396.322C513.896 395.074 513.546 393.695 513.546 392.184C513.546 390.652 513.896 389.272 514.597 388.046C515.32 386.82 516.294 385.857 517.52 385.156C518.768 384.434 520.158 384.073 521.691 384.073C522.895 384.073 524.011 384.302 525.04 384.762C526.069 385.2 526.956 385.846 527.7 386.7L525.73 388.67C525.248 388.101 524.657 387.674 523.956 387.389C523.278 387.083 522.522 386.93 521.691 386.93C520.705 386.93 519.83 387.16 519.063 387.619C518.297 388.057 517.695 388.67 517.257 389.458C516.819 390.246 516.6 391.155 516.6 392.184C516.6 393.213 516.819 394.122 517.257 394.91C517.695 395.698 518.297 396.322 519.063 396.782C519.83 397.241 520.705 397.471 521.691 397.471C522.522 397.471 523.278 397.329 523.956 397.044C524.657 396.738 525.259 396.3 525.763 395.731L527.7 397.701C526.978 398.533 526.091 399.179 525.04 399.639C524.011 400.099 522.895 400.328 521.691 400.328ZM533.226 400.328C532.613 400.328 532.098 400.12 531.682 399.704C531.288 399.267 531.091 398.752 531.091 398.161C531.091 397.548 531.288 397.044 531.682 396.65C532.098 396.234 532.613 396.026 533.226 396.026C533.839 396.026 534.342 396.234 534.737 396.65C535.152 397.044 535.36 397.548 535.36 398.161C535.36 398.752 535.152 399.267 534.737 399.704C534.342 400.12 533.839 400.328 533.226 400.328Z" fill="white"/>
<g clip-path="url(#clip1_754_156)">
<path fill-rule="evenodd" clip-rule="evenodd" d="M51.0005 193.779H167.24L281 80H51.0005V193.779Z" fill="url(#paint1_linear_754_156)"/>
<path fill-rule="evenodd" clip-rule="evenodd" d="M187.494 101.393L164.854 101.38V155.211L145.077 101.38H125.467L108.58 146.398C106.782 135.047 95.0397 131.127 85.8018 128.188C79.7019 126.23 73.2299 123.348 73.2896 120.164C73.3403 117.55 76.7615 115.122 83.5391 115.488C88.0958 115.729 92.1132 116.097 100.11 119.953L107.975 106.256C100.675 102.543 90.5906 100.195 82.3271 100.187H82.2792C72.6431 100.187 64.6117 103.309 59.6339 108.454C56.1642 112.048 54.2952 116.612 54.2171 121.661C54.0905 128.607 56.6383 133.536 61.9909 137.466C66.5108 140.781 72.2912 142.929 77.3861 144.508C83.6718 146.456 88.8014 148.148 88.7417 151.76C88.6954 153.073 88.1968 154.299 87.252 155.294C85.6864 156.91 83.2786 157.518 79.9545 157.58C73.5422 157.716 68.7853 156.71 61.2089 152.234L54.2171 166.123C61.7723 170.421 70.7184 172.941 79.8463 172.941L81.0209 172.927C88.967 172.784 95.3799 170.52 100.502 166.395C100.796 166.163 101.06 165.924 101.332 165.683L99.0604 171.748H119.627L123.079 161.25C126.691 162.485 130.802 163.167 135.168 163.167C139.417 163.167 143.42 162.514 146.968 161.353L150.295 171.748H183.835V150.013H191.149C208.833 150.013 219.29 141.007 219.29 125.918C219.29 109.108 209.129 101.395 187.493 101.395L187.494 101.393ZM135.169 147.455C132.527 147.455 130.051 146.994 127.916 146.187L135.091 123.546H135.227L142.279 146.251C140.159 147.003 137.74 147.455 135.17 147.455H135.169ZM188.823 134.447H183.837V116.203H188.823C195.475 116.203 200.78 118.412 200.78 125.204C200.78 132.232 195.475 134.447 188.823 134.447Z" fill="white"/>
</g>
</g>
<defs>
<linearGradient id="paint0_linear_754_156" x1="-195.5" y1="-153.524" x2="1617.79" y2="833.221" gradientUnits="userSpaceOnUse">
<stop stop-color="#1E51CA"/>
<stop offset="0.59413" stop-color="#0F2864"/>
</linearGradient>
<linearGradient id="paint1_linear_754_156" x1="166" y1="80" x2="166" y2="193.779" gradientUnits="userSpaceOnUse">
<stop stop-color="#00B1EB"/>
<stop offset="0.212" stop-color="#009AD9"/>
<stop offset="0.519" stop-color="#007FC4"/>
<stop offset="0.792" stop-color="#006EB8"/>
<stop offset="1" stop-color="#0069B4"/>
</linearGradient>
<clipPath id="clip0_754_156">
<rect width="1810" height="480" fill="white"/>
</clipPath>
<clipPath id="clip1_754_156">
<rect width="230" height="113.779" fill="white" transform="translate(51 80)"/>
</clipPath>
</defs>
</svg>
